<svg width="404" height="404" viewBox="0 0 404 404" fill="none" xmlns="http://www.w3.org/2000/svg">
<path d="M2 22C2 10.9543 10.9543 2 22 2H152C163.046 2 172 10.9543 172 22V382C172 393.046 163.046 402 152 402H22C10.9543 402 2 393.046 2 382V22Z" fill="black"/>
<path d="M232 22C232 10.9543 240.954 2 252 2H382C393.046 2 402 10.9543 402 22V152C402 163.046 393.046 172 382 172H252C240.954 172 232 163.046 232 152V22Z" fill="black"/>
<path d="M2 252C2 240.954 10.9543 232 22 232H382C393.046 232 402 240.954 402 252V382C402 393.046 393.046 402 382 402H22C10.9543 402 2 393.046 2 382V252Z" fill="black"/>
<path d="M172.564 205.261C172.501 205.089 172.42 204.925 172.33 204.765C172.383 205.088 172.441 205.41 172.512 205.73C172.633 206.275 172.661 206.838 172.855 207.365C173.128 208.11 173.463 208.826 173.785 209.55C174.054 210.153 174.282 210.774 174.554 211.37C174.698 211.561 174.838 211.754 174.977 211.948C175.273 212.363 175.537 212.796 175.784 213.238C175.835 213.279 175.725 213.106 175.718 213.091C175.49 212.592 175.357 212.054 175.197 211.531C174.976 210.815 174.758 210.109 174.471 209.416C174.262 208.913 174.086 208.43 173.785 207.979C173.615 207.724 173.464 207.405 173.35 207.123C173.241 206.855 172.947 206.427 173.398 206.788C174.48 207.653 174.796 209.239 175.595 210.34C176.105 211.043 176.532 211.794 177.069 212.469C178.074 213.732 178.907 215.132 179.85 216.438C180.342 217.119 180.864 217.784 181.522 218.311C182.293 218.928 183.081 219.519 183.838 220.157C185.374 221.454 186.48 223.149 188.06 224.383C189.834 225.77 191.559 227.137 193.525 228.266C196.051 229.717 198.779 230.835 201.582 231.636C202.646 231.94 203.698 232.306 204.747 232.656C204.885 232.702 205.332 232.785 205.417 232.89C205.474 232.961 205.342 232.925 205.29 232.924C204.745 232.916 204.202 232.847 203.66 232.79C201.41 232.552 199.222 231.991 196.988 231.651C195.419 231.411 193.829 231.45 192.245 231.45C190.413 231.45 188.587 231.396 186.757 231.383C185.926 231.377 185.064 231.356 184.236 231.282C183.491 231.216 182.744 231.286 181.999 231.234C179.12 231.03 176.198 230.617 173.32 230.977C172.578 231.07 172.594 229.371 172.575 228.899C172.547 228.147 172.378 227.402 172.378 226.658C172.378 224.293 173.048 221.984 173.048 219.621C173.048 218.438 173.028 217.279 172.881 216.103C172.822 215.636 172.818 215.163 172.765 214.696C172.704 214.147 172.539 213.599 172.516 213.05C172.483 212.271 172.479 211.463 172.579 210.69C172.621 210.367 172.578 209.573 173.089 209.781C173.385 209.902 173.6 210.186 173.8 210.421C174.062 210.729 174.312 211.046 174.554 211.37C174.282 210.774 174.054 210.153 173.785 209.55C173.463 208.826 173.128 208.11 172.855 207.365C172.661 206.838 172.633 206.275 172.512 205.73C172.441 205.41 172.383 205.088 172.33 204.765C172.2 203.961 172.106 203.153 171.937 202.354C171.81 202.188 171.66 202.049 171.507 201.896C171.297 201.686 171.346 201.249 171.377 200.973C171.401 200.757 171.767 201.656 171.79 201.739C171.845 201.943 171.893 202.148 171.937 202.354C172.001 202.438 172.06 202.53 172.11 202.633C172.238 202.895 172.33 203.197 172.412 203.478C172.603 204.136 172.828 204.856 172.899 205.537C172.972 206.236 172.657 205.512 172.564 205.261Z" fill="black"/>
<path d="M169.084 202.153C168.967 202.973 169.536 203.732 170.357 203.85C171.177 203.967 171.936 203.397 172.054 202.577L169.084 202.153ZM171.172 202.931L169.955 203.807L169.955 203.807L171.172 202.931ZM171.708 203.757L173.008 203.008L173.008 203.008L171.708 203.757ZM172.564 205.261L173.971 204.74L173.971 204.74L172.564 205.261ZM172.899 205.537L174.391 205.381L174.391 205.381L172.899 205.537ZM172.412 203.478L170.971 203.896L170.971 203.896L172.412 203.478ZM171.377 200.973L172.867 201.138L172.867 201.138L171.377 200.973ZM171.79 201.739L173.238 201.348L173.238 201.348L171.79 201.739ZM172.512 205.73L173.976 205.405L173.976 205.405L172.512 205.73ZM172.855 207.365L171.447 207.882L171.447 207.882L172.855 207.365ZM173.785 209.55L175.156 208.94L175.156 208.94L173.785 209.55ZM175.766 213.221L174.705 214.282L174.706 214.282L175.766 213.221ZM175.718 213.091L174.354 213.715L174.354 213.715L175.718 213.091ZM175.197 211.531L176.63 211.09L176.63 211.09L175.197 211.531ZM174.471 209.416L173.085 209.992L173.085 209.992L174.471 209.416ZM173.785 207.979L175.034 207.147L175.034 207.147L173.785 207.979ZM173.35 207.123L174.74 206.558L174.74 206.558L173.35 207.123ZM173.398 206.788L174.335 205.616L174.335 205.616L173.398 206.788ZM175.595 210.34L174.381 211.221L174.381 211.221L175.595 210.34ZM177.069 212.469L175.895 213.403L175.895 213.403L177.069 212.469ZM179.85 216.438L181.066 215.56L181.066 215.56L179.85 216.438ZM181.522 218.311L180.585 219.482L180.585 219.482L181.522 218.311ZM183.838 220.157L182.871 221.304L182.871 221.304L183.838 220.157ZM188.06 224.383L187.136 225.565L187.136 225.565L188.06 224.383ZM193.525 228.266L194.273 226.966L194.273 226.966L193.525 228.266ZM201.582 231.636L201.994 230.193L201.994 230.193L201.582 231.636ZM204.747 232.656L205.221 231.233L205.221 231.233L204.747 232.656ZM205.417 232.89L204.246 233.827L204.246 233.828L205.417 232.89ZM205.29 232.924L205.27 234.424L205.27 234.424L205.29 232.924ZM203.66 232.79L203.502 234.282L203.502 234.282L203.66 232.79ZM196.988 231.651L196.762 233.134L196.762 233.134L196.988 231.651ZM186.757 231.383L186.746 232.883L186.746 232.883L186.757 231.383ZM184.236 231.282L184.37 229.788L184.37 229.788L184.236 231.282ZM181.999 231.234L181.893 232.73L181.893 232.73L181.999 231.234ZM173.32 230.977L173.134 229.488L173.134 229.488L173.32 230.977ZM172.575 228.899L171.077 228.957L171.077 228.957L172.575 228.899ZM172.881 216.103L174.369 215.917L174.369 215.917L172.881 216.103ZM172.765 214.696L171.275 214.864L171.275 214.864L172.765 214.696ZM172.516 213.05L174.015 212.986L174.015 212.986L172.516 213.05ZM172.579 210.69L171.092 210.496L171.092 210.496L172.579 210.69ZM173.089 209.781L172.523 211.17L172.523 211.17L173.089 209.781ZM173.8 210.421L172.658 211.394L172.658 211.394L173.8 210.421ZM174.977 211.948L176.197 211.076L176.197 211.076L174.977 211.948ZM176.57 214.737L177.907 214.055L177.907 214.055L176.57 214.737ZM178.514 218.281L177.289 219.147L177.289 219.147L178.514 218.281ZM182.297 222.231L183.281 221.1L183.281 221.1L182.297 222.231ZM187.527 226.051L186.795 227.36L186.795 227.36L187.527 226.051ZM187.58 226.081L188.312 224.771L188.312 224.771L187.58 226.081ZM192.945 229.301L192.095 230.537L192.095 230.537L192.945 229.301ZM193.823 229.908L192.933 231.116L192.933 231.116L193.823 229.908ZM194.166 230.4L193.889 231.874L193.889 231.874L194.166 230.4ZM192.196 229.871L191.814 231.322L191.814 231.322L192.196 229.871ZM189.08 229.041L189.516 227.605L189.516 227.605L189.08 229.041ZM177.412 228.036L177.356 226.537L177.356 226.537L177.412 228.036ZM174.471 228.233L174.506 229.732L174.506 229.732L174.471 228.233ZM177.497 228.709L177.75 227.231L177.75 227.231L177.497 228.709ZM183.101 229.387L182.921 230.876L182.921 230.876L183.101 229.387ZM185.379 229.119L184.959 230.559L184.959 230.559L185.379 229.119ZM180.744 228.006L180.44 229.475L180.44 229.475L180.744 228.006ZM176.637 227.481L176.472 228.972L176.472 228.972L176.637 227.481ZM174.094 227.224L173.769 228.688L173.769 228.688L174.094 227.224ZM173.919 225.634L175.419 225.647L175.419 225.647L173.919 225.634ZM173.987 217.443L175.463 217.706L175.463 217.706L173.987 217.443ZM174.206 215.228L175.566 214.595L175.566 214.595L174.206 215.228ZM175.42 217.503L174.104 218.222L174.104 218.222L175.42 217.503ZM177.408 221.226L176.103 221.965L176.103 221.965L177.408 221.226ZM181.027 224.51L181.684 223.161L181.684 223.161L181.027 224.51ZM183.984 225.616L184.444 224.188L184.444 224.188L183.984 225.616ZM183.994 225.619L183.534 227.047L183.535 227.047L183.994 225.619ZM185.74 226.286L186.505 224.995L186.505 224.995L185.74 226.286ZM185.543 226.394L185.7 224.902L185.7 224.902L185.543 226.394ZM182.773 226.059L182.481 227.53L182.481 227.53L182.773 226.059ZM178.29 225.254L178.098 226.742L178.098 226.742L178.29 225.254ZM176.213 225.165L176.36 223.672L176.36 223.672L176.213 225.165ZM175.599 225.113L177.041 224.701L177.041 224.701L175.599 225.113ZM175.61 223.423L174.113 223.319L174.113 223.319L175.61 223.423ZM175.725 221.762L177.224 221.832L177.224 221.832L175.725 221.762ZM176.064 221.174L177.282 220.298L177.282 220.298L176.064 221.174ZM177.203 224.134L175.786 224.624L175.786 224.624L177.203 224.134ZM177.389 224.919L178.386 223.798L178.386 223.798L177.389 224.919ZM176.891 223.62L175.463 224.081L175.463 224.081L176.891 223.62ZM175.64 220.035L177.07 219.582L177.07 219.582L175.64 220.035ZM175.941 213.21C175.823 212.39 175.064 211.82 174.243 211.937C173.423 212.055 172.854 212.814 172.971 213.634L175.941 213.21ZM22 3.5H152V0.5H22V3.5ZM170.5 22V382H173.5V22H170.5ZM152 400.5H22V403.5H152V400.5ZM3.5 382V22H0.5V382H3.5ZM22 400.5C11.7827 400.5 3.5 392.217 3.5 382H0.5C0.5 393.874 10.1259 403.5 22 403.5V400.5ZM170.5 382C170.5 392.217 162.217 400.5 152 400.5V403.5C163.874 403.5 173.5 393.874 173.5 382H170.5ZM152 3.5C162.217 3.5 170.5 11.7827 170.5 22H173.5C173.5 10.1259 163.874 0.5 152 0.5V3.5ZM22 0.5C10.1259 0.5 0.5 10.1259 0.5 22H3.5C3.5 11.7827 11.7827 3.5 22 3.5V0.5ZM252 3.5H382V0.5H252V3.5ZM400.5 22V152H403.5V22H400.5ZM382 170.5H252V173.5H382V170.5ZM233.5 152V22H230.5V152H233.5ZM252 170.5C241.783 170.5 233.5 162.217 233.5 152H230.5C230.5 163.874 240.126 173.5 252 173.5V170.5ZM400.5 152C400.5 162.217 392.217 170.5 382 170.5V173.5C393.874 173.5 403.5 163.874 403.5 152H400.5ZM382 3.5C392.217 3.5 400.5 11.7827 400.5 22H403.5C403.5 10.1259 393.874 0.5 382 0.5V3.5ZM252 0.5C240.126 0.5 230.5 10.1259 230.5 22H233.5C233.5 11.7827 241.783 3.5 252 3.5V0.5ZM22 233.5H382V230.5H22V233.5ZM400.5 252V382H403.5V252H400.5ZM382 400.5H22V403.5H382V400.5ZM3.5 382V252H0.5V382H3.5ZM400.5 382C400.5 392.217 392.217 400.5 382 400.5V403.5C393.874 403.5 403.5 393.874 403.5 382H400.5ZM382 233.5C392.217 233.5 400.5 241.783 400.5 252H403.5C403.5 240.126 393.874 230.5 382 230.5V233.5ZM22 230.5C10.1259 230.5 0.5 240.126 0.5 252H3.5C3.5 241.783 11.7827 233.5 22 233.5V230.5ZM170.002 195.086C170.185 198.281 171.44 202.29 173.539 206.456C175.649 210.644 178.659 215.085 182.454 219.149C190.032 227.265 200.86 234 214 234V231C201.94 231 191.852 224.818 184.646 217.101C181.049 213.248 178.201 209.043 176.218 205.106C174.223 201.147 173.148 197.552 172.998 194.914L170.002 195.086ZM172.054 202.577C172.015 202.846 171.847 203.382 171.266 203.682C170.766 203.94 170.314 203.828 170.178 203.788C170.007 203.739 169.889 203.669 169.848 203.644C169.795 203.612 169.759 203.584 169.743 203.573C169.703 203.541 169.709 203.54 169.773 203.608C169.9 203.741 169.991 203.857 169.955 203.807L172.389 202.054C172.306 201.939 172.105 201.706 171.946 201.539C171.868 201.458 171.733 201.319 171.585 201.204C171.551 201.178 171.333 201.001 171.018 200.909C170.866 200.864 170.4 200.752 169.89 201.016C169.299 201.321 169.125 201.867 169.084 202.153L172.054 202.577ZM169.955 203.807C170.13 204.051 170.263 204.254 170.408 204.506L173.008 203.008C172.806 202.658 172.616 202.369 172.389 202.054L169.955 203.807ZM170.408 204.506C170.528 204.714 170.657 204.913 170.758 205.07C170.867 205.239 170.95 205.37 171.021 205.497L173.639 204.032C173.517 203.814 173.387 203.611 173.282 203.447C173.168 203.271 173.083 203.139 173.008 203.008L170.408 204.506ZM171.021 205.497C171.085 205.612 171.129 205.704 171.158 205.782L173.971 204.74C173.872 204.474 173.754 204.237 173.639 204.032L171.021 205.497ZM171.158 205.782C171.207 205.915 171.357 206.296 171.537 206.573C171.571 206.625 171.705 206.835 171.937 207.013C172.049 207.099 172.353 207.311 172.804 207.331C173.37 207.357 173.817 207.074 174.073 206.748C174.278 206.485 174.344 206.223 174.368 206.115C174.397 205.983 174.406 205.869 174.409 205.795C174.414 205.645 174.404 205.499 174.391 205.381L171.407 205.692C171.413 205.749 171.409 205.734 171.411 205.677C171.412 205.649 171.416 205.572 171.439 205.469C171.456 205.391 171.514 205.149 171.709 204.9C171.954 204.587 172.389 204.309 172.941 204.335C173.379 204.355 173.667 204.559 173.763 204.632C173.881 204.723 173.955 204.81 173.984 204.846C174.019 204.889 174.042 204.922 174.051 204.937C174.069 204.964 174.015 204.859 173.971 204.74L171.158 205.782ZM174.391 205.381C174.303 204.533 174.025 203.656 173.852 203.06L170.971 203.896C171.18 204.617 171.354 205.179 171.407 205.692L174.391 205.381ZM173.852 203.06C173.772 202.783 173.649 202.368 173.459 201.977L170.761 203.288C170.826 203.423 170.889 203.612 170.971 203.896L173.852 203.06ZM173.459 201.977C173.359 201.771 173.244 201.594 173.128 201.442L170.746 203.266C170.752 203.275 170.756 203.28 170.758 203.283C170.76 203.286 170.76 203.287 170.761 203.288L173.459 201.977ZM173.128 201.442C172.923 201.175 172.669 200.936 172.568 200.835L170.446 202.956C170.651 203.161 170.697 203.202 170.746 203.266L173.128 201.442ZM172.568 200.835C172.722 200.99 172.791 201.148 172.819 201.235C172.834 201.28 172.841 201.315 172.845 201.335C172.848 201.356 172.849 201.368 172.849 201.369C172.849 201.369 172.848 201.35 172.851 201.305C172.854 201.259 172.859 201.211 172.867 201.138L169.886 200.807C169.873 200.926 169.835 201.231 169.854 201.549C169.871 201.826 169.944 202.454 170.446 202.956L172.568 200.835ZM172.867 201.138C172.862 201.185 172.831 201.522 172.577 201.856C172.422 202.057 172.17 202.277 171.806 202.381C171.451 202.484 171.137 202.433 170.928 202.364C170.573 202.246 170.37 202.027 170.337 201.992C170.269 201.921 170.227 201.861 170.213 201.841C170.173 201.783 170.176 201.775 170.225 201.88C170.261 201.956 170.3 202.046 170.331 202.122C170.382 202.248 170.366 202.221 170.342 202.13L173.238 201.348C173.202 201.216 173.132 201.046 173.107 200.986C173.063 200.877 173.004 200.74 172.942 200.608C172.894 200.504 172.799 200.307 172.683 200.138C172.65 200.091 172.591 200.008 172.507 199.92C172.457 199.869 172.24 199.638 171.873 199.516C171.657 199.445 171.338 199.394 170.977 199.498C170.609 199.604 170.351 199.827 170.193 200.034C169.93 200.378 169.894 200.733 169.886 200.807L172.867 201.138ZM170.342 202.13C170.389 202.304 170.431 202.481 170.469 202.664L173.404 202.044C173.356 201.816 173.301 201.583 173.238 201.348L170.342 202.13ZM170.469 202.664C170.629 203.422 170.704 204.109 170.85 205.005L173.811 204.524C173.695 203.813 173.582 202.885 173.404 202.044L170.469 202.664ZM170.85 205.005C170.905 205.345 170.968 205.697 171.048 206.056L173.976 205.405C173.914 205.122 173.861 204.83 173.811 204.524L170.85 205.005ZM171.048 206.056C171.097 206.278 171.12 206.462 171.177 206.804C171.227 207.102 171.301 207.485 171.447 207.882L174.263 206.848C174.215 206.718 174.178 206.555 174.135 206.305C174.1 206.096 174.048 205.727 173.976 205.405L171.048 206.056ZM171.447 207.882C171.743 208.688 172.108 209.471 172.415 210.161L175.156 208.94C174.818 208.182 174.514 207.531 174.263 206.848L171.447 207.882ZM172.415 210.161C172.538 210.436 172.652 210.718 172.78 211.03C172.904 211.333 173.04 211.664 173.19 211.994L175.918 210.746C175.797 210.48 175.682 210.202 175.557 209.895C175.435 209.597 175.301 209.267 175.156 208.94L172.415 210.161ZM173.19 211.994C173.531 212.739 173.984 213.56 174.705 214.282L176.827 212.161C176.467 211.801 176.192 211.344 175.918 210.746L173.19 211.994ZM174.706 214.282C174.731 214.307 174.78 214.355 174.844 214.407L176.724 212.068C176.754 212.093 176.777 212.114 176.792 212.127C176.807 212.141 176.819 212.153 176.827 212.161L174.706 214.282ZM174.844 214.407C174.88 214.436 174.98 214.514 175.123 214.586C175.195 214.622 175.331 214.682 175.512 214.717C175.689 214.751 176.014 214.779 176.378 214.626C177.26 214.255 177.297 213.39 177.297 213.242C177.298 213.014 177.245 212.841 177.231 212.796C177.193 212.673 177.146 212.578 177.135 212.555C177.116 212.515 177.097 212.481 177.085 212.459C177.061 212.416 177.037 212.376 177.027 212.358C177.023 212.351 177.023 212.351 177.02 212.346C177.018 212.343 177.017 212.342 177.018 212.343C177.018 212.343 177.019 212.345 177.02 212.347C177.021 212.349 177.024 212.354 177.027 212.359C177.03 212.364 177.036 212.374 177.043 212.388C177.048 212.397 177.064 212.427 177.082 212.467L174.354 213.715C174.372 213.756 174.389 213.787 174.395 213.798C174.403 213.813 174.409 213.825 174.413 213.832C174.421 213.846 174.428 213.858 174.432 213.864C174.438 213.875 174.447 213.889 174.45 213.894C174.461 213.912 174.462 213.915 174.46 213.912C174.459 213.91 174.451 213.895 174.44 213.872C174.437 213.865 174.396 213.785 174.362 213.673C174.349 213.632 174.297 213.464 174.297 213.24C174.298 213.095 174.334 212.232 175.214 211.861C175.577 211.709 175.901 211.737 176.077 211.771C176.257 211.805 176.39 211.865 176.461 211.9C176.6 211.97 176.694 212.045 176.724 212.069L174.844 214.407ZM177.082 212.467C176.908 212.087 176.825 211.724 176.63 211.09L173.763 211.972C173.889 212.383 174.071 213.097 174.354 213.715L177.082 212.467ZM176.63 211.09C176.413 210.383 176.175 209.61 175.856 208.841L173.085 209.992C173.341 210.608 173.54 211.246 173.763 211.972L176.63 211.09ZM175.856 208.841C175.682 208.423 175.438 207.753 175.034 207.147L172.537 208.811C172.734 209.106 172.841 209.404 173.085 209.992L175.856 208.841ZM175.034 207.147C174.943 207.012 174.836 206.797 174.74 206.558L171.96 207.687C172.092 208.013 172.288 208.436 172.537 208.811L175.034 207.147ZM174.74 206.558C174.686 206.427 174.616 206.289 174.592 206.24C174.538 206.132 174.566 206.178 174.592 206.261C174.602 206.292 174.624 206.363 174.639 206.46C174.651 206.538 174.678 206.749 174.616 207.011C174.543 207.317 174.331 207.736 173.857 207.983C173.444 208.198 173.065 208.154 172.909 208.125C172.738 208.093 172.615 208.037 172.567 208.014C172.509 207.986 172.47 207.961 172.455 207.952C172.426 207.933 172.424 207.93 172.461 207.959L174.335 205.616C174.259 205.556 174.168 205.486 174.07 205.423C174.018 205.39 173.784 205.236 173.461 205.176C173.288 205.143 172.897 205.101 172.474 205.321C171.99 205.572 171.772 206.001 171.697 206.318C171.632 206.593 171.659 206.819 171.674 206.916C171.691 207.031 171.718 207.123 171.736 207.179C171.794 207.357 171.887 207.538 171.904 207.573C171.925 207.616 171.938 207.64 171.95 207.665C171.961 207.69 171.963 207.695 171.96 207.687L174.74 206.558ZM172.461 207.959C172.723 208.168 172.952 208.514 173.255 209.134C173.51 209.655 173.88 210.531 174.381 211.221L176.809 209.458C176.51 209.048 176.324 208.58 175.95 207.816C175.625 207.152 175.156 206.273 174.335 205.616L172.461 207.959ZM174.381 211.221C174.611 211.537 174.82 211.862 175.07 212.241C175.31 212.605 175.582 213.01 175.895 213.403L178.243 211.535C178.019 211.254 177.809 210.945 177.574 210.589C177.349 210.248 177.089 209.845 176.809 209.458L174.381 211.221ZM175.895 213.403C176.358 213.985 176.79 214.609 177.238 215.275C177.677 215.927 178.144 216.637 178.634 217.316L181.066 215.56C180.614 214.933 180.192 214.29 179.727 213.6C179.272 212.923 178.784 212.216 178.243 211.535L175.895 213.403ZM178.634 217.316C179.139 218.015 179.758 218.821 180.585 219.482L182.459 217.139C181.969 216.747 181.546 216.223 181.066 215.56L178.634 217.316ZM180.585 219.482C181.409 220.141 182.129 220.678 182.871 221.304L184.805 219.011C184.033 218.36 183.177 217.714 182.459 217.139L180.585 219.482ZM182.871 221.304C183.544 221.872 184.131 222.534 184.818 223.297C185.478 224.031 186.23 224.857 187.136 225.565L188.983 223.201C188.31 222.675 187.719 222.036 187.048 221.29C186.402 220.573 185.668 219.739 184.805 219.011L182.871 221.304ZM187.136 225.565C188.89 226.935 190.702 228.374 192.778 229.567L194.273 226.966C192.416 225.899 190.779 224.604 188.983 223.201L187.136 225.565ZM192.778 229.567C195.419 231.084 198.261 232.247 201.17 233.078L201.994 230.193C199.297 229.423 196.683 228.35 194.273 226.966L192.778 229.567ZM201.17 233.078C202.193 233.37 203.197 233.72 204.273 234.079L205.221 231.233C204.199 230.892 203.099 230.509 201.994 230.193L201.17 233.078ZM204.273 234.079C204.333 234.099 204.39 234.115 204.423 234.124C204.46 234.134 204.499 234.143 204.53 234.151C204.599 234.169 204.647 234.181 204.692 234.194C204.713 234.2 204.727 234.204 204.734 234.206C204.742 234.209 204.736 234.207 204.719 234.2C204.705 234.194 204.657 234.174 204.592 234.135C204.559 234.114 204.51 234.083 204.454 234.038C204.4 233.994 204.324 233.925 204.246 233.827L206.588 231.953C206.422 231.745 206.239 231.625 206.147 231.569C206.041 231.505 205.943 231.46 205.873 231.431C205.736 231.374 205.601 231.333 205.511 231.308C205.417 231.281 205.322 231.257 205.266 231.243C205.181 231.221 205.191 231.223 205.221 231.233L204.273 234.079ZM204.246 233.828C204.205 233.776 204.072 233.606 203.993 233.342C203.899 233.027 203.866 232.481 204.254 231.993C204.568 231.597 204.969 231.495 205.091 231.468C205.247 231.433 205.37 231.434 205.413 231.434C205.501 231.435 205.571 231.446 205.534 231.442C205.532 231.441 205.505 231.438 205.478 231.435C205.455 231.432 205.391 231.425 205.311 231.424L205.27 234.424C205.173 234.423 205.082 234.408 205.146 234.416C205.147 234.417 205.256 234.432 205.376 234.434C205.435 234.435 205.573 234.434 205.74 234.397C205.874 234.367 206.284 234.261 206.603 233.858C206.996 233.364 206.965 232.809 206.867 232.483C206.785 232.207 206.643 232.022 206.588 231.953L204.246 233.828ZM205.311 231.424C204.854 231.418 204.406 231.361 203.818 231.298L203.502 234.282C203.998 234.334 204.636 234.415 205.27 234.424L205.311 231.424ZM203.818 231.298C202.76 231.186 201.702 230.997 200.601 230.786C199.516 230.578 198.368 230.344 197.214 230.168L196.762 233.134C197.842 233.298 198.905 233.515 200.035 233.732C201.149 233.945 202.31 234.155 203.502 234.282L203.818 231.298ZM197.214 230.168C195.504 229.907 193.771 229.95 192.245 229.95V232.95C193.886 232.95 195.334 232.916 196.762 233.134L197.214 230.168ZM192.245 229.95C190.396 229.95 188.667 229.896 186.768 229.883L186.746 232.883C188.507 232.895 190.431 232.95 192.245 232.95V229.95ZM186.768 229.883C185.95 229.877 185.136 229.856 184.37 229.788L184.103 232.776C184.992 232.856 185.903 232.877 186.746 232.883L186.768 229.883ZM184.37 229.788C183.915 229.747 183.474 229.75 183.106 229.753C182.716 229.756 182.407 229.759 182.105 229.737L181.893 232.73C182.336 232.761 182.772 232.755 183.129 232.753C183.507 232.75 183.812 232.75 184.103 232.776L184.37 229.788ZM182.105 229.737C179.37 229.544 176.205 229.105 173.134 229.488L173.506 232.465C176.192 232.129 178.869 232.516 181.893 232.73L182.105 229.737ZM173.134 229.488C173.341 229.462 173.578 229.499 173.794 229.617C173.991 229.724 174.096 229.858 174.139 229.921C174.181 229.984 174.189 230.018 174.181 229.995C174.175 229.976 174.163 229.934 174.149 229.865C174.086 229.539 174.087 229.161 174.074 228.842L171.077 228.957C171.082 229.108 171.084 229.816 171.204 230.434C171.261 230.732 171.376 231.188 171.648 231.594C171.968 232.07 172.602 232.578 173.506 232.465L173.134 229.488ZM174.074 228.842C174.057 228.388 173.998 227.942 173.955 227.593C173.909 227.218 173.878 226.928 173.878 226.658H170.878C170.878 227.132 170.932 227.587 170.977 227.958C171.026 228.356 171.065 228.658 171.077 228.957L174.074 228.842ZM173.878 226.658C173.878 225.6 174.028 224.538 174.198 223.352C174.363 222.201 174.548 220.927 174.548 219.621H171.548C171.548 220.678 171.399 221.74 171.228 222.926C171.063 224.076 170.878 225.351 170.878 226.658H173.878ZM174.548 219.621C174.548 218.428 174.528 217.19 174.369 215.917L171.392 216.289C171.527 217.367 171.548 218.448 171.548 219.621H174.548ZM174.369 215.917C174.346 215.735 174.333 215.542 174.318 215.304C174.304 215.08 174.287 214.805 174.256 214.528L171.275 214.864C171.296 215.054 171.308 215.249 171.324 215.495C171.339 215.727 171.357 216.004 171.392 216.289L174.369 215.917ZM174.256 214.528C174.217 214.182 174.145 213.832 174.1 213.595C174.05 213.326 174.021 213.144 174.015 212.986L171.017 213.114C171.034 213.505 171.099 213.872 171.152 214.151C171.211 214.462 171.252 214.661 171.275 214.864L174.256 214.528ZM174.015 212.986C173.983 212.237 173.983 211.529 174.067 210.883L171.092 210.496C170.975 211.397 170.983 212.305 171.017 213.114L174.015 212.986ZM174.067 210.883C174.078 210.796 174.084 210.711 174.088 210.659C174.093 210.593 174.095 210.556 174.099 210.509C174.108 210.409 174.114 210.4 174.105 210.433C174.099 210.454 174.079 210.524 174.028 210.616C173.977 210.709 173.874 210.863 173.687 211C173.485 211.148 173.244 211.233 172.998 211.245C172.772 211.257 172.605 211.203 172.523 211.17L173.655 208.392C173.208 208.21 172.526 208.13 171.913 208.58C171.427 208.937 171.267 209.438 171.212 209.64C171.144 209.885 171.121 210.123 171.11 210.256C171.104 210.325 171.099 210.402 171.096 210.44C171.092 210.492 171.091 210.502 171.092 210.496L174.067 210.883ZM172.523 211.17C172.465 211.147 172.428 211.122 172.414 211.111C172.4 211.101 172.402 211.1 172.421 211.119C172.44 211.139 172.467 211.168 172.508 211.216C172.529 211.24 172.55 211.265 172.575 211.295C172.599 211.324 172.629 211.359 172.658 211.394L174.943 209.449C174.884 209.38 174.713 209.169 174.541 208.997C174.354 208.81 174.062 208.558 173.655 208.392L172.523 211.17ZM172.658 211.394C172.895 211.672 173.126 211.965 173.354 212.27L175.754 210.47C175.498 210.128 175.228 209.785 174.943 209.449L172.658 211.394ZM173.354 212.27C173.489 212.45 173.623 212.633 173.756 212.82L176.197 211.076C176.054 210.875 175.906 210.672 175.754 210.47L173.354 212.27ZM173.756 212.82C174.011 213.177 174.245 213.559 174.475 213.969L177.093 212.506C176.829 212.032 176.536 211.549 176.197 211.076L173.756 212.82ZM174.475 213.969C174.732 214.431 174.972 214.905 175.234 215.418L177.907 214.055C177.654 213.56 177.385 213.028 177.093 212.506L174.475 213.969ZM175.234 215.418C175.806 216.538 176.412 217.906 177.289 219.147L179.738 217.415C179.026 216.408 178.58 215.376 177.907 214.055L175.234 215.418ZM177.289 219.147C178.438 220.771 179.944 222.172 181.312 223.363L183.281 221.1C181.942 219.934 180.667 218.728 179.738 217.415L177.289 219.147ZM181.312 223.363C182.964 224.801 184.789 226.237 186.795 227.36L188.26 224.742C186.514 223.765 184.868 222.481 183.281 221.1L181.312 223.363ZM186.795 227.36L186.848 227.39L188.312 224.771L188.26 224.742L186.795 227.36ZM186.848 227.39C188.672 228.41 190.448 229.405 192.095 230.537L193.794 228.065C192.014 226.841 190.116 225.78 188.312 224.771L186.848 227.39ZM192.095 230.537C192.432 230.77 192.672 230.923 192.933 231.116L194.713 228.701C194.401 228.471 194.043 228.236 193.794 228.065L192.095 230.537ZM192.933 231.116C192.961 231.136 193.005 231.167 193.023 231.18C193.051 231.2 193.08 231.22 193.11 231.242C193.14 231.264 193.167 231.285 193.19 231.303C193.201 231.312 193.21 231.319 193.217 231.325C193.223 231.33 193.226 231.333 193.225 231.332C193.225 231.332 193.218 231.325 193.205 231.313C193.194 231.301 193.169 231.274 193.138 231.234C193.11 231.199 193.051 231.121 192.995 231.005C192.946 230.905 192.84 230.66 192.851 230.326C192.865 229.921 193.048 229.518 193.387 229.239C193.669 229.008 193.955 228.947 194.076 228.928C194.213 228.907 194.317 228.912 194.359 228.915C194.407 228.919 194.438 228.925 194.443 228.926L193.889 231.874C193.99 231.893 194.245 231.938 194.538 231.892C194.689 231.869 194.996 231.8 195.292 231.557C195.645 231.267 195.835 230.849 195.85 230.427C195.861 230.074 195.75 229.809 195.69 229.687C195.622 229.549 195.547 229.445 195.499 229.384C195.402 229.261 195.302 229.166 195.242 229.111C195.028 228.917 194.68 228.676 194.713 228.701L192.933 231.116ZM194.443 228.926C193.835 228.811 193.41 228.64 192.578 228.421L191.814 231.322C192.285 231.445 193.172 231.739 193.889 231.874L194.443 228.926ZM192.578 228.421C191.481 228.131 190.511 227.908 189.516 227.605L188.644 230.476C189.708 230.799 190.831 231.063 191.814 231.322L192.578 228.421ZM189.516 227.605C187.301 226.933 185.038 226.532 182.669 226.532V229.532C184.692 229.532 186.659 229.873 188.644 230.476L189.516 227.605ZM182.669 226.532C182.057 226.532 181.443 226.524 180.815 226.517L180.782 229.517C181.403 229.524 182.036 229.532 182.669 229.532V226.532ZM180.815 226.517C179.689 226.504 178.523 226.493 177.356 226.537L177.467 229.534C178.551 229.494 179.648 229.504 180.782 229.517L180.815 226.517ZM177.356 226.537C176.821 226.556 176.292 226.604 175.813 226.645C175.32 226.687 174.874 226.723 174.435 226.733L174.506 229.732C175.049 229.719 175.582 229.675 176.068 229.634C176.569 229.591 177.02 229.551 177.467 229.534L177.356 226.537ZM174.435 226.733C174.358 226.735 174.264 226.739 174.173 226.748C174.13 226.752 174.052 226.761 173.962 226.781C173.917 226.791 173.842 226.81 173.753 226.843C173.682 226.869 173.503 226.94 173.315 227.093C173.124 227.25 172.758 227.642 172.764 228.272C172.769 228.856 173.097 229.219 173.228 229.344C173.474 229.581 173.745 229.671 173.76 229.676C173.895 229.727 174.023 229.753 174.069 229.763C174.297 229.81 174.679 229.859 175.038 229.904C175.845 230.005 176.786 230.11 177.245 230.188L177.75 227.231C177.202 227.137 176.119 227.016 175.409 226.927C175.009 226.877 174.76 226.842 174.674 226.824C174.641 226.817 174.71 226.829 174.809 226.866C174.84 226.878 174.897 226.9 174.965 226.936C175.021 226.964 175.159 227.04 175.304 227.179C175.432 227.302 175.758 227.661 175.764 228.243C175.77 228.87 175.406 229.259 175.217 229.413C175.033 229.564 174.858 229.633 174.794 229.656C174.711 229.687 174.644 229.703 174.609 229.711C174.538 229.726 174.487 229.732 174.478 229.733C174.453 229.735 174.456 229.734 174.506 229.732L174.435 226.733ZM177.245 230.188C179.149 230.513 181.15 230.663 182.921 230.876L183.28 227.898C181.308 227.66 179.567 227.541 177.75 227.231L177.245 230.188ZM182.921 230.876C183.994 231.005 185.145 231.14 186.336 231.14V228.14C185.349 228.14 184.368 228.029 183.28 227.898L182.921 230.876ZM186.336 231.14C186.417 231.14 186.523 231.137 186.638 231.122C186.722 231.111 186.958 231.077 187.213 230.941C187.499 230.787 188.077 230.323 188.017 229.488C187.975 228.893 187.607 228.545 187.542 228.482C187.337 228.285 187.105 228.172 187.042 228.14C186.933 228.086 186.819 228.037 186.721 227.998C186.344 227.847 185.876 227.701 185.8 227.679L184.959 230.559C184.958 230.559 185.055 230.588 185.196 230.635C185.335 230.682 185.486 230.735 185.605 230.783C185.665 230.807 185.696 230.822 185.705 230.826C185.76 230.853 185.618 230.795 185.461 230.644C185.42 230.604 185.066 230.278 185.025 229.701C184.967 228.885 185.534 228.437 185.794 228.297C186.024 228.174 186.221 228.151 186.25 228.147C186.31 228.139 186.344 228.14 186.336 228.14V231.14ZM185.8 227.679C184.246 227.226 182.64 226.867 181.103 226.548L180.494 229.486C182.008 229.8 183.522 230.139 184.959 230.559L185.8 227.679ZM181.103 226.548C181.085 226.545 181.067 226.541 181.048 226.537L180.44 229.475C180.457 229.478 180.475 229.482 180.494 229.486L181.103 226.548ZM181.048 226.537C179.594 226.236 178.094 226.133 176.803 225.99L176.472 228.972C177.939 229.135 179.169 229.211 180.44 229.475L181.048 226.537ZM176.803 225.99C176.355 225.94 175.845 225.916 175.466 225.889C175.046 225.859 174.707 225.823 174.42 225.76L173.769 228.688C174.284 228.803 174.807 228.85 175.254 228.881C175.741 228.916 176.102 228.931 176.472 228.972L176.803 225.99ZM174.42 225.76C174.972 225.882 175.232 226.27 175.308 226.403C175.354 226.483 175.379 226.549 175.391 226.584C175.404 226.622 175.41 226.647 175.412 226.655C175.413 226.663 175.402 226.602 175.399 226.446C175.396 226.308 175.399 226.157 175.405 226.016C175.408 225.946 175.41 225.884 175.413 225.827C175.415 225.784 175.419 225.707 175.419 225.647L172.42 225.621C172.421 225.507 172.392 226.178 172.4 226.514C172.404 226.723 172.42 227.017 172.481 227.298C172.511 227.433 172.57 227.657 172.702 227.888C172.826 228.107 173.145 228.55 173.769 228.688L174.42 225.76ZM175.419 225.647C175.422 225.31 175.45 224.969 175.484 224.558C175.516 224.165 175.554 223.707 175.554 223.233H172.554C172.554 223.566 172.527 223.907 172.494 224.313C172.462 224.699 172.424 225.155 172.42 225.621L175.419 225.647ZM175.554 223.233C175.554 222.53 175.51 221.826 175.423 221.129L172.446 221.501C172.518 222.074 172.554 222.654 172.554 223.233H175.554ZM175.423 221.129C175.28 219.986 175.274 218.77 175.463 217.706L172.51 217.181C172.256 218.609 172.275 220.137 172.446 221.501L175.423 221.129ZM175.463 217.706C175.585 217.022 175.621 216.337 175.621 215.708H172.621C172.621 216.233 172.59 216.728 172.51 217.181L175.463 217.706ZM175.621 215.708C175.621 215.36 175.547 215.05 175.519 214.92C175.479 214.739 175.487 214.746 175.487 214.778H172.487C172.487 215.124 172.561 215.436 172.588 215.561C172.627 215.738 172.621 215.736 172.621 215.708H175.621ZM175.487 214.778C175.487 214.827 175.489 215.084 175.36 215.378C175.287 215.544 175.134 215.807 174.832 216.012C174.502 216.237 174.134 216.298 173.819 216.262C173.32 216.205 173.019 215.917 172.983 215.884C172.89 215.799 172.829 215.722 172.805 215.69C172.752 215.622 172.72 215.565 172.713 215.554C172.701 215.534 172.694 215.521 172.693 215.518C172.691 215.515 172.703 215.538 172.729 215.596C172.752 215.645 172.775 215.699 172.795 215.744C172.801 215.757 172.835 215.837 172.846 215.861L175.566 214.595C175.574 214.613 175.58 214.626 175.544 214.544C175.522 214.493 175.491 214.423 175.459 214.353C175.431 214.291 175.389 214.2 175.348 214.121C175.341 214.109 175.28 213.988 175.186 213.866C175.16 213.831 175.096 213.75 175 213.663C174.962 213.629 174.659 213.339 174.159 213.282C173.843 213.246 173.475 213.307 173.144 213.532C172.841 213.738 172.688 214.002 172.615 214.168C172.484 214.464 172.487 214.724 172.487 214.778H175.487ZM172.846 215.861C173.074 216.349 173.323 216.813 173.563 217.247L176.188 215.796C175.958 215.38 175.749 214.987 175.566 214.595L172.846 215.861ZM173.563 217.247C173.757 217.598 173.924 217.893 174.104 218.222L176.736 216.784C176.558 216.457 176.357 216.101 176.188 215.796L173.563 217.247ZM174.104 218.222C174.715 219.341 175.424 220.766 176.103 221.965L178.713 220.487C178.007 219.239 177.473 218.132 176.736 216.784L174.104 218.222ZM176.103 221.965C177.124 223.77 178.619 225.004 180.37 225.858L181.684 223.161C180.372 222.521 179.383 221.669 178.713 220.487L176.103 221.965ZM180.37 225.858C181.416 226.368 182.555 226.732 183.525 227.044L184.444 224.188C183.435 223.864 182.505 223.562 181.684 223.161L180.37 225.858ZM183.524 227.044L183.534 227.047L184.454 224.191L184.444 224.188L183.524 227.044ZM183.535 227.047C184.242 227.275 184.635 227.374 184.976 227.576L186.505 224.995C185.787 224.57 184.913 224.339 184.454 224.191L183.535 227.047ZM184.976 227.576C184.984 227.581 184.948 227.561 184.894 227.518C184.882 227.509 184.669 227.351 184.518 227.05C184.43 226.874 184.316 226.553 184.382 226.149C184.453 225.717 184.693 225.413 184.915 225.234C185.261 224.955 185.623 224.926 185.639 224.924C185.784 224.906 185.883 224.92 185.825 224.915C185.79 224.912 185.784 224.911 185.7 224.902L185.386 227.885C185.396 227.886 185.498 227.898 185.563 227.904C185.606 227.908 185.798 227.927 186.005 227.901C186.053 227.895 186.439 227.859 186.798 227.569C187.027 227.385 187.271 227.074 187.343 226.635C187.41 226.223 187.294 225.893 187.201 225.708C187.041 225.386 186.804 225.204 186.753 225.164C186.661 225.091 186.57 225.034 186.505 224.995L184.976 227.576ZM185.7 224.902C184.689 224.795 183.887 224.75 183.065 224.587L182.481 227.53C183.482 227.728 184.551 227.798 185.386 227.885L185.7 224.902ZM183.065 224.587C181.604 224.297 180.051 223.97 178.483 223.767L178.098 226.742C179.54 226.929 180.967 227.229 182.481 227.53L183.065 224.587ZM178.483 223.767C178.038 223.709 177.607 223.705 177.265 223.702C176.894 223.699 176.623 223.698 176.36 223.672L176.066 226.658C176.493 226.7 176.917 226.699 177.241 226.702C177.593 226.705 177.855 226.71 178.098 226.742L178.483 223.767ZM176.36 223.672C176.278 223.664 176.21 223.665 176.201 223.665C176.177 223.664 176.155 223.665 176.141 223.665C176.114 223.666 176.078 223.667 176.056 223.667C176 223.669 175.952 223.67 175.912 223.67C175.857 223.669 175.874 223.666 175.929 223.675C175.949 223.678 176.064 223.695 176.212 223.757C176.287 223.789 176.427 223.855 176.575 223.98C176.728 224.109 176.939 224.342 177.041 224.701L174.156 225.525C174.359 226.235 174.953 226.482 175.048 226.522C175.23 226.599 175.392 226.627 175.466 226.639C175.631 226.665 175.79 226.668 175.879 226.669C175.982 226.671 176.08 226.668 176.141 226.666C176.177 226.665 176.192 226.665 176.204 226.664C176.259 226.663 176.169 226.668 176.066 226.658L176.36 223.672ZM177.041 224.701C177.048 224.725 177.04 224.709 177.036 224.634C177.032 224.563 177.033 224.469 177.039 224.349C177.045 224.229 177.056 224.102 177.069 223.961C177.08 223.832 177.096 223.669 177.106 223.526L174.113 223.319C174.108 223.398 174.056 223.932 174.043 224.195C174.026 224.524 174.017 225.036 174.156 225.525L177.041 224.701ZM177.106 223.526C177.141 223.024 177.197 222.403 177.224 221.832L174.227 221.692C174.202 222.226 174.155 222.715 174.113 223.319L177.106 223.526ZM177.224 221.832C177.232 221.658 177.22 221.45 177.216 221.373C177.21 221.236 177.212 221.211 177.211 221.226C177.21 221.228 177.204 221.344 177.147 221.501C177.106 221.614 176.895 222.145 176.253 222.356C175.601 222.57 175.114 222.257 175.013 222.187C174.936 222.134 174.886 222.086 174.864 222.064C174.851 222.051 174.842 222.042 174.837 222.036C174.832 222.03 174.829 222.026 174.829 222.026L177.157 220.135C177.073 220.03 176.927 219.863 176.722 219.721C176.552 219.604 176.011 219.278 175.317 219.506C174.632 219.731 174.39 220.303 174.327 220.477C174.248 220.696 174.228 220.894 174.22 220.989C174.204 221.193 174.215 221.409 174.219 221.509C174.226 221.669 174.227 221.694 174.227 221.692L177.224 221.832ZM174.829 222.026C174.829 222.026 174.83 222.028 174.833 222.032C174.836 222.036 174.84 222.042 174.846 222.049L177.282 220.298C177.243 220.244 177.201 220.189 177.157 220.135L174.829 222.026ZM174.846 222.049C175.033 222.31 175.173 222.628 175.314 223.068C175.386 223.291 175.449 223.517 175.526 223.785C175.6 224.042 175.684 224.331 175.786 224.624L178.621 223.643C178.548 223.433 178.483 223.211 178.41 222.957C178.34 222.715 178.26 222.431 178.171 222.151C177.989 221.584 177.734 220.927 177.282 220.298L174.846 222.049ZM175.786 224.624C175.801 224.668 175.868 224.853 175.919 225.022C175.951 225.127 175.947 225.133 175.939 225.079C175.936 225.059 175.927 225 175.926 224.918C175.926 224.878 175.919 224.632 176.039 224.344C176.107 224.182 176.252 223.919 176.548 223.708C176.872 223.477 177.239 223.408 177.556 223.439C178.057 223.488 178.358 223.774 178.386 223.798L176.393 226.04C176.438 226.081 176.754 226.375 177.266 226.425C177.588 226.456 177.96 226.385 178.288 226.152C178.588 225.939 178.736 225.671 178.806 225.503C178.932 225.203 178.927 224.939 178.926 224.876C178.925 224.771 178.913 224.684 178.905 224.632C178.878 224.449 178.822 224.257 178.791 224.155C178.717 223.91 178.619 223.639 178.621 223.643L175.786 224.624ZM178.386 223.798C178.452 223.857 178.493 223.91 178.516 223.942C178.538 223.974 178.548 223.994 178.549 223.996C178.55 223.998 178.546 223.99 178.538 223.968C178.53 223.946 178.52 223.917 178.508 223.878C178.484 223.795 178.462 223.704 178.432 223.58C178.407 223.477 178.367 223.31 178.318 223.158L175.463 224.081C175.471 224.106 175.484 224.156 175.516 224.288C175.543 224.398 175.582 224.56 175.63 224.724C175.704 224.974 175.892 225.595 176.393 226.04L178.386 223.798ZM178.318 223.158C178.034 222.28 177.689 221.376 177.407 220.579L174.579 221.581C174.897 222.477 175.195 223.251 175.463 224.081L178.318 223.158ZM177.407 220.579C177.287 220.242 177.174 219.911 177.07 219.582L174.21 220.488C174.328 220.86 174.453 221.226 174.579 221.581L177.407 220.579ZM177.07 219.582C176.739 218.539 176.531 217.452 176.359 216.301L173.392 216.743C173.574 217.962 173.81 219.226 174.21 220.488L177.07 219.582ZM176.359 216.301C176.199 215.227 176.103 214.348 175.941 213.21L172.971 213.634C173.103 214.563 173.245 215.757 173.392 216.743L176.359 216.301Z" fill="black"/>
</svg>
