<svg width="829" height="188" viewBox="0 0 829 188" fill="none" xmlns="http://www.w3.org/2000/svg">
<path d="M2 25.65C2 21.425 5.42502 18 9.65 18H59.375C63.6 18 67.025 21.425 67.025 25.65V163.35C67.025 167.575 63.6 171 59.375 171H9.65C5.42502 171 2 167.575 2 163.35V25.65Z" fill="black"/>
<path d="M89.975 25.65C89.975 21.425 93.4 18 97.625 18H147.35C151.575 18 155 21.425 155 25.65V75.375C155 79.6 151.575 83.025 147.35 83.025H97.625C93.4 83.025 89.975 79.6 89.975 75.375V25.65Z" fill="black"/>
<path d="M2 113.625C2 109.4 5.42502 105.975 9.65 105.975H147.35C151.575 105.975 155 109.4 155 113.625V163.35C155 167.575 151.575 171 147.35 171H9.65C5.42502 171 2 167.575 2 163.35V113.625Z" fill="black"/>
<path d="M67.2408 95.7474C67.2164 95.6815 67.1856 95.6187 67.1513 95.5575C67.1714 95.681 67.1936 95.8042 67.2209 95.9268C67.2672 96.135 67.2779 96.3505 67.3519 96.552C67.4566 96.8369 67.5846 97.111 67.7079 97.388C67.8106 97.6184 67.8979 97.8561 68.002 98.0839C68.0569 98.157 68.1107 98.2309 68.1636 98.3051C68.2771 98.4639 68.3778 98.6293 68.4723 98.7984C68.492 98.8142 68.4497 98.7482 68.447 98.7423C68.3598 98.5514 68.3092 98.3456 68.2477 98.1456C68.1634 97.8717 68.08 97.6017 67.97 97.3367C67.8901 97.1444 67.8228 96.9593 67.7079 96.787C67.6429 96.6895 67.5851 96.5673 67.5413 96.4595C67.4997 96.3571 67.3874 96.1933 67.5598 96.3313C67.9736 96.6623 68.0944 97.2689 68.4 97.6899C68.5953 97.9588 68.7586 98.2462 68.964 98.5045C69.3481 98.9874 69.667 99.523 70.0278 100.023C70.2159 100.283 70.4153 100.537 70.6672 100.739C70.9622 100.975 71.2635 101.201 71.553 101.445C72.1407 101.941 72.5636 102.589 73.1679 103.062C73.8467 103.592 74.5063 104.115 75.2585 104.547C76.2245 105.102 77.2678 105.529 78.3402 105.836C78.747 105.952 79.1494 106.092 79.5507 106.226C79.6034 106.243 79.7746 106.275 79.807 106.316C79.8287 106.343 79.7783 106.329 79.7586 106.328C79.5498 106.326 79.3422 106.299 79.1348 106.277C78.2744 106.186 77.4373 105.972 76.5829 105.841C75.9828 105.75 75.3744 105.764 74.7686 105.764C74.0681 105.764 73.3695 105.744 72.6695 105.739C72.3517 105.737 72.0219 105.729 71.7054 105.7C71.4205 105.675 71.1344 105.702 70.8495 105.682C69.7483 105.604 68.6308 105.446 67.5299 105.584C67.2462 105.619 67.252 104.969 67.2451 104.789C67.234 104.501 67.1696 104.216 67.1696 103.932C67.1696 103.027 67.426 102.144 67.426 101.24C67.426 100.788 67.4181 100.344 67.3619 99.8944C67.3396 99.7157 67.3379 99.5349 67.3177 99.3561C67.2941 99.1463 67.2313 98.9368 67.2223 98.7266C67.2096 98.4287 67.2082 98.1195 67.2465 97.8237C67.2625 97.7005 67.2461 97.3966 67.4416 97.4763C67.5549 97.5224 67.637 97.6311 67.7136 97.7212C67.8136 97.8387 67.9093 97.9602 68.002 98.0839C67.8979 97.8561 67.8106 97.6184 67.7079 97.388C67.5846 97.111 67.4566 96.8369 67.3519 96.552C67.2779 96.3505 67.2672 96.135 67.2209 95.9268C67.1936 95.8042 67.1714 95.681 67.1513 95.5575C67.1014 95.2501 67.0654 94.9411 67.0008 94.6354C66.9523 94.572 66.895 94.5187 66.8364 94.46C66.7562 94.3799 66.7748 94.2129 66.7865 94.107C66.7957 94.0244 66.9361 94.3685 66.9446 94.4002C66.9657 94.4783 66.9842 94.5568 67.0008 94.6354C67.0255 94.6677 67.0479 94.7025 67.0671 94.742C67.1159 94.8424 67.1513 94.9579 67.1824 95.0653C67.2556 95.3171 67.3419 95.5925 67.369 95.8528C67.3968 96.1201 67.2764 95.8434 67.2408 95.7474Z" fill="black"/>
<path d="M64.9926 94.4273C64.8754 95.2474 65.4453 96.0072 66.2654 96.1244C67.0855 96.2416 67.8453 95.6717 67.9624 94.8516L64.9926 94.4273ZM66.7082 94.8559L65.4909 95.7324L65.4909 95.7324L66.7082 94.8559ZM66.9133 95.1721L68.2129 94.4231L66.9133 95.1721ZM67.2408 95.7474L68.6475 95.2264L68.6475 95.2264L67.2408 95.7474ZM67.369 95.8528L68.8609 95.6974L68.8609 95.6974L67.369 95.8528ZM67.1824 95.0653L65.7419 95.4835L65.7419 95.4835L67.1824 95.0653ZM67.0671 94.742L65.7178 95.3974L67.0671 94.742ZM66.7865 94.107L68.2774 94.2726L68.2774 94.2726L66.7865 94.107ZM66.9446 94.4002L68.3928 94.0092L68.3928 94.0092L66.9446 94.4002ZM67.2209 95.9268L68.6852 95.6015L68.6852 95.6015L67.2209 95.9268ZM67.3519 96.552L65.9439 97.0693L65.9439 97.0693L67.3519 96.552ZM67.7079 97.388L69.0782 96.7777L69.0782 96.7777L67.7079 97.388ZM68.4656 98.7921L67.4049 99.8528L67.4049 99.8528L68.4656 98.7921ZM68.447 98.7423L67.0828 99.3659L67.0828 99.3659L68.447 98.7423ZM68.2477 98.1456L69.6813 97.7045L69.6813 97.7045L68.2477 98.1456ZM67.97 97.3367L66.5847 97.9121L66.5847 97.9121L67.97 97.3367ZM67.7079 96.787L68.956 95.955L68.956 95.955L67.7079 96.787ZM67.5413 96.4595L68.931 95.8949L68.931 95.8949L67.5413 96.4595ZM67.5598 96.3313L68.4969 95.16L68.4969 95.16L67.5598 96.3313ZM68.4 97.6899L67.1862 98.5711L67.1862 98.5711L68.4 97.6899ZM68.964 98.5045L70.1379 97.5707L70.1379 97.5707L68.964 98.5045ZM70.0278 100.023L71.2438 99.1443L71.2438 99.1443L70.0278 100.023ZM70.6672 100.739L69.7302 101.91L69.7302 101.91L70.6672 100.739ZM71.553 101.445L70.5857 102.592L70.5857 102.592L71.553 101.445ZM73.1679 103.062L72.2444 104.244L72.2444 104.244L73.1679 103.062ZM75.2585 104.547L76.0057 103.246L76.0057 103.246L75.2585 104.547ZM78.3402 105.836L78.7523 104.393L78.7523 104.393L78.3402 105.836ZM79.5507 106.226L80.025 104.803L80.025 104.803L79.5507 106.226ZM79.807 106.316L78.6357 107.253L78.6357 107.253L79.807 106.316ZM79.7586 106.328L79.7381 107.828L79.7381 107.828L79.7586 106.328ZM79.1348 106.277L78.9769 107.769L78.9769 107.769L79.1348 106.277ZM76.5829 105.841L76.3567 107.324L76.3567 107.324L76.5829 105.841ZM72.6695 105.739L72.6588 107.239L72.6588 107.239L72.6695 105.739ZM71.7054 105.7L71.8388 104.206L71.8388 104.206L71.7054 105.7ZM70.8495 105.682L70.7434 107.178L70.7434 107.178L70.8495 105.682ZM67.5299 105.584L67.3439 104.095L67.3439 104.095L67.5299 105.584ZM67.2451 104.789L65.7462 104.847L65.7462 104.847L67.2451 104.789ZM67.3619 99.8944L68.8503 99.7083L68.8503 99.7083L67.3619 99.8944ZM67.3177 99.3561L65.8272 99.524L65.8272 99.524L67.3177 99.3561ZM67.2223 98.7266L68.721 98.6628L68.721 98.6628L67.2223 98.7266ZM67.2465 97.8237L65.759 97.6307L65.759 97.6307L67.2465 97.8237ZM67.4416 97.4763L66.8757 98.8654L66.8757 98.8654L67.4416 97.4763ZM67.7136 97.7212L66.5712 98.6933L66.5712 98.6933L67.7136 97.7212ZM68.1636 98.3051L69.3842 97.4332L69.3842 97.4332L68.1636 98.3051ZM68.7732 99.3717L70.1093 98.69L70.1093 98.69L68.7732 99.3717ZM69.5165 100.727L68.2919 101.594L68.2919 101.594L69.5165 100.727ZM70.9634 102.238L71.9482 101.107L71.9482 101.107L70.9634 102.238ZM72.9643 103.7L72.2318 105.009L72.2324 105.009L72.9643 103.7ZM72.9844 103.711L73.7168 102.402L73.7163 102.401L72.9844 103.711ZM75.0363 104.943L74.1865 106.179L74.1865 106.179L75.0363 104.943ZM75.3724 105.175L74.4826 106.382L74.4826 106.382L75.3724 105.175ZM75.5034 105.363L75.2262 106.837L75.2262 106.837L75.5034 105.363ZM74.7501 105.161L74.3678 106.611L74.3678 106.611L74.7501 105.161ZM73.5581 104.843L73.9938 103.408L73.9938 103.408L73.5581 104.843ZM69.095 104.459L69.0395 102.96L69.0395 102.96L69.095 104.459ZM67.97 104.534L68.0057 106.034L68.0057 106.034L67.97 104.534ZM69.1278 104.716L69.3802 103.238L69.3802 103.238L69.1278 104.716ZM71.271 104.976L71.0918 106.465L71.0918 106.465L71.271 104.976ZM72.1426 104.873L71.7223 106.313L71.7223 106.313L72.1426 104.873ZM70.3696 104.447L70.0652 105.916L70.0652 105.916L70.3696 104.447ZM68.7988 104.246L68.6331 105.737L68.6331 105.737L68.7988 104.246ZM67.8261 104.148L67.5007 105.612L67.5007 105.612L67.8261 104.148ZM67.7592 103.54L69.2591 103.553L69.2591 103.553L67.7592 103.54ZM67.7848 100.407L69.2617 100.67L69.2617 100.67L67.7848 100.407ZM67.8689 99.5597L69.2286 98.9264L69.2286 98.9264L67.8689 99.5597ZM68.3331 100.43L67.0167 101.149L67.0167 101.149L68.3331 100.43ZM69.0936 101.854L67.7882 102.593L67.7882 102.593L69.0936 101.854ZM70.4778 103.11L71.1351 101.762L71.1351 101.762L70.4778 103.11ZM71.609 103.533L71.1495 104.961L71.1499 104.961L71.609 103.533ZM71.6128 103.534L72.0722 102.106L72.0718 102.106L71.6128 103.534ZM72.2807 103.789L73.0454 102.499L73.0454 102.499L72.2807 103.789ZM72.2052 103.831L72.3622 102.339L72.3622 102.339L72.2052 103.831ZM71.1457 103.702L70.8537 105.174L70.8537 105.174L71.1457 103.702ZM69.4311 103.395L69.2383 104.882L69.2383 104.882L69.4311 103.395ZM68.6364 103.361L68.7839 101.868L68.7838 101.868L68.6364 103.361ZM68.4015 103.341L69.8438 102.929L69.8438 102.929L68.4015 103.341ZM68.4057 102.694L66.9093 102.591L66.9093 102.591L68.4057 102.694ZM68.4499 102.059L69.9483 102.129L69.9483 102.129L68.4499 102.059ZM68.5795 101.834L69.7975 100.959L69.7975 100.959L68.5795 101.834ZM69.0153 102.966L67.5978 103.457L67.5978 103.457L69.0153 102.966ZM69.0865 103.267L70.083 102.146L70.083 102.146L69.0865 103.267ZM68.8956 102.77L67.4684 103.231L67.4684 103.231L68.8956 102.77ZM68.4171 101.398L69.8471 100.945L69.8471 100.945L68.4171 101.398ZM69.4492 98.6569C69.332 97.8368 68.5722 97.2669 67.7521 97.3841C66.932 97.5013 66.3622 98.261 66.4793 99.0812L69.4492 98.6569ZM9.65 19.5H59.375V16.5H9.65V19.5ZM65.525 25.65V163.35H68.525V25.65H65.525ZM59.375 169.5H9.65V172.5H59.375V169.5ZM3.5 163.35V25.65H0.5V163.35H3.5ZM9.65 169.5C6.25345 169.5 3.5 166.747 3.5 163.35H0.5C0.5 168.403 4.59659 172.5 9.65 172.5V169.5ZM65.525 163.35C65.525 166.747 62.7715 169.5 59.375 169.5V172.5C64.4284 172.5 68.525 168.403 68.525 163.35H65.525ZM59.375 19.5C62.7715 19.5 65.525 22.2534 65.525 25.65H68.525C68.525 20.5966 64.4284 16.5 59.375 16.5V19.5ZM9.65 16.5C4.59659 16.5 0.5 20.5966 0.5 25.65H3.5C3.5 22.2535 6.25345 19.5 9.65 19.5V16.5ZM97.625 19.5H147.35V16.5H97.625V19.5ZM153.5 25.65V75.375H156.5V25.65H153.5ZM147.35 81.525H97.625V84.525H147.35V81.525ZM91.475 75.375V25.65H88.475V75.375H91.475ZM97.625 81.525C94.2284 81.525 91.475 78.7715 91.475 75.375H88.475C88.475 80.4284 92.5716 84.525 97.625 84.525V81.525ZM153.5 75.375C153.5 78.7715 150.747 81.525 147.35 81.525V84.525C152.403 84.525 156.5 80.4284 156.5 75.375H153.5ZM147.35 19.5C150.747 19.5 153.5 22.2535 153.5 25.65H156.5C156.5 20.5966 152.403 16.5 147.35 16.5V19.5ZM97.625 16.5C92.5716 16.5 88.475 20.5966 88.475 25.65H91.475C91.475 22.2534 94.2284 19.5 97.625 19.5V16.5ZM9.65 107.475H147.35V104.475H9.65V107.475ZM153.5 113.625V163.35H156.5V113.625H153.5ZM147.35 169.5H9.65V172.5H147.35V169.5ZM3.5 163.35V113.625H0.5V163.35H3.5ZM153.5 163.35C153.5 166.747 150.747 169.5 147.35 169.5V172.5C152.403 172.5 156.5 168.403 156.5 163.35H153.5ZM147.35 107.475C150.747 107.475 153.5 110.228 153.5 113.625H156.5C156.5 108.572 152.403 104.475 147.35 104.475V107.475ZM9.65 104.475C4.5966 104.475 0.5 108.572 0.5 113.625H3.5C3.5 110.228 6.25345 107.475 9.65 107.475V104.475ZM65.3362 91.9081C65.4159 93.3027 65.9513 94.9639 66.7863 96.6213C67.6326 98.3009 68.8345 100.072 70.3465 101.691C73.36 104.919 77.7309 107.666 83.09 107.666V104.666C78.8101 104.666 75.1803 102.473 72.5393 99.6441C71.224 98.2354 70.1851 96.6996 69.4655 95.2714C68.7346 93.8209 68.3791 92.5735 68.3313 91.7369L65.3362 91.9081ZM67.9624 94.8516C67.9232 95.1262 67.753 95.665 67.1689 95.9664C66.6656 96.226 66.2096 96.1144 66.0684 96.0732C65.8925 96.0219 65.7687 95.9496 65.7203 95.9202C65.6605 95.8838 65.6167 95.8509 65.5933 95.8328C65.5196 95.7754 65.4818 95.7321 65.5025 95.7539C65.5407 95.794 65.5416 95.8027 65.4909 95.7324L67.9255 93.9795C67.8569 93.8841 67.7459 93.7595 67.6751 93.6851C67.6413 93.6496 67.5496 93.5537 67.4348 93.4644C67.4174 93.4509 67.2134 93.2823 66.9091 93.1934C66.7616 93.1504 66.3004 93.0387 65.7933 93.3003C65.2053 93.6037 65.0327 94.1465 64.9926 94.4273L67.9624 94.8516ZM65.4909 95.7324C65.5421 95.8035 65.5757 95.8552 65.6136 95.921L68.2129 94.4231C68.1182 94.2588 68.0281 94.122 67.9255 93.9795L65.4909 95.7324ZM65.6136 95.921C65.673 96.0241 65.7362 96.1211 65.7709 96.1752C65.8135 96.2414 65.8309 96.2695 65.8425 96.2902L68.4602 94.8247C68.3979 94.7136 68.3336 94.6137 68.2942 94.5526C68.2471 94.4793 68.2282 94.4495 68.2129 94.4231L65.6136 95.921ZM65.8425 96.2902C65.8466 96.2976 65.8471 96.299 65.8455 96.2956C65.8438 96.2921 65.8396 96.2828 65.8342 96.2684L68.6475 95.2264C68.5884 95.0669 68.5199 94.9315 68.4602 94.8247L65.8425 96.2902ZM65.8342 96.2684C65.8546 96.3234 65.9415 96.5548 66.0714 96.7544C66.0928 96.7873 66.2153 96.9824 66.4374 97.1526C66.5444 97.2347 66.8433 97.4441 67.2902 97.4646C67.8524 97.4903 68.2954 97.209 68.5475 96.8863C68.7494 96.6281 68.8136 96.3724 68.8354 96.2735C68.8625 96.1506 68.8694 96.0478 68.8718 95.9877C68.8765 95.8666 68.8676 95.761 68.8609 95.6974L65.8771 96.0082C65.8767 96.0048 65.8755 95.9921 65.8745 95.9724C65.8735 95.9542 65.8722 95.9182 65.8741 95.8702C65.8758 95.828 65.8811 95.7394 65.9057 95.6277C65.9251 95.5398 65.986 95.292 66.1839 95.0389C66.4321 94.7213 66.8704 94.4422 67.4274 94.4677C67.869 94.4879 68.1621 94.6947 68.2627 94.7718C68.4721 94.9324 68.5801 95.1092 68.586 95.1182C68.617 95.166 68.635 95.201 68.6392 95.2092C68.6426 95.2158 68.6449 95.2205 68.646 95.2229C68.6472 95.2254 68.6478 95.2267 68.6478 95.2268C68.6479 95.2269 68.6476 95.2264 68.6472 95.2254C68.6468 95.2244 68.6464 95.2233 68.6459 95.2224C68.6448 95.2196 68.6453 95.2206 68.6475 95.2264L65.8342 96.2684ZM68.8609 95.6974C68.8164 95.2697 68.6779 94.8364 68.623 94.6471L65.7419 95.4835C65.8332 95.7979 65.8674 95.9152 65.8771 96.0082L68.8609 95.6974ZM68.623 94.6471C68.5929 94.5434 68.5273 94.315 68.4164 94.0867L65.7178 95.3974C65.7073 95.3756 65.7061 95.3691 65.7128 95.3885C65.7194 95.4077 65.7278 95.435 65.7419 95.4835L68.623 94.6471ZM68.4164 94.0867C68.347 93.9438 68.2685 93.8237 68.192 93.7237L65.8096 95.5471C65.7825 95.5117 65.7489 95.4613 65.7178 95.3974L68.4164 94.0867ZM68.192 93.7237C68.0653 93.5582 67.9038 93.4061 67.8971 93.3994L65.7757 95.5207C65.7859 95.5308 65.7954 95.5403 65.8034 95.5481C65.8073 95.552 65.8113 95.556 65.8147 95.5594C65.8182 95.5629 65.8214 95.5659 65.8243 95.5689C65.8367 95.5812 65.8422 95.5867 65.8453 95.5899C65.8478 95.5925 65.8449 95.5896 65.8389 95.5828C65.8327 95.5757 65.8223 95.5636 65.8096 95.5471L68.192 93.7237ZM67.8971 93.3994C68.0842 93.5865 68.175 93.7858 68.2188 93.9195C68.2615 94.0502 68.2713 94.1539 68.2743 94.203C68.2793 94.2868 68.2693 94.3449 68.2774 94.2726L65.2957 93.9413C65.292 93.975 65.2668 94.1696 65.2797 94.3833C65.2901 94.5553 65.3381 95.0831 65.7757 95.5207L67.8971 93.3994ZM68.2774 94.2726C68.2712 94.3283 68.2388 94.6707 67.9814 95.0073C67.826 95.2106 67.572 95.431 67.207 95.536C66.8498 95.6387 66.5343 95.5883 66.3232 95.5182C65.9644 95.3992 65.7571 95.1766 65.7188 95.1364C65.6458 95.06 65.5987 94.9935 65.5791 94.9651C65.5154 94.8728 65.4884 94.8064 65.5074 94.8469C65.5129 94.8587 65.5216 94.8786 65.5295 94.8978C65.5574 94.966 65.5244 94.8944 65.4965 94.7912L68.3928 94.0092C68.3606 93.8901 68.3068 93.7637 68.3057 93.761C68.2846 93.7094 68.256 93.6425 68.2242 93.5746C68.2059 93.5354 68.1416 93.3965 68.0487 93.2619C68.0219 93.223 67.9679 93.1478 67.8888 93.0649C67.8443 93.0183 67.6316 92.7916 67.2681 92.6709C67.0545 92.6001 66.7369 92.5495 66.3777 92.6529C66.0107 92.7584 65.755 92.98 65.5981 93.1853C65.3376 93.526 65.303 93.8754 65.2957 93.9413L68.2774 94.2726ZM65.4965 94.7912C65.5092 94.8385 65.5214 94.8895 65.5332 94.9453L68.4685 94.3255C68.447 94.2241 68.4222 94.1182 68.3928 94.0092L65.4965 94.7912ZM65.5332 94.9453C65.5889 95.2094 65.6058 95.3978 65.6707 95.7978L68.6319 95.3171C68.5971 95.1025 68.5418 94.6728 68.4685 94.3255L65.5332 94.9453ZM65.6707 95.7978C65.6935 95.9381 65.721 96.0918 65.7566 96.2522L68.6852 95.6015C68.6663 95.5166 68.6493 95.4239 68.6319 95.3171L65.6707 95.7978ZM65.7566 96.2522C65.7687 96.3065 65.768 96.3199 65.7969 96.4914C65.8187 96.6204 65.8579 96.8351 65.9439 97.0693L68.7599 96.0348C68.7719 96.0675 68.7688 96.0736 68.7551 95.9925C68.752 95.9738 68.7487 95.9535 68.7445 95.9274C68.7407 95.9032 68.7357 95.8717 68.7305 95.8402C68.7201 95.7768 68.7055 95.6931 68.6852 95.6015L65.7566 96.2522ZM65.9439 97.0693C66.071 97.4153 66.2296 97.7556 66.3377 97.9982L69.0782 96.7777C68.9396 96.4665 68.8421 96.2585 68.7599 96.0348L65.9439 97.0693ZM66.3377 97.9982C66.3774 98.0875 66.4152 98.1804 66.4658 98.3042C66.5128 98.4193 66.5714 98.5623 66.638 98.7078L69.3661 97.46C69.3285 97.3777 69.2913 97.288 69.243 97.1697C69.1982 97.0601 69.1411 96.9189 69.0782 96.7777L66.3377 97.9982ZM66.638 98.7078C66.789 99.0381 67.0171 99.465 67.4049 99.8528L69.5262 97.7315C69.5002 97.7054 69.4502 97.6437 69.3661 97.46L66.638 98.7078ZM67.4049 99.8528C67.4234 99.8712 67.4694 99.9167 67.5326 99.9675L69.4121 97.6293C69.4451 97.6558 69.4706 97.6787 69.4867 97.6935C69.5036 97.7091 69.517 97.7223 69.5262 97.7314L67.4049 99.8528ZM67.5325 99.9674C67.5666 99.9949 67.6647 100.072 67.8066 100.143C67.8782 100.179 68.0131 100.239 68.1938 100.274C68.3709 100.308 68.6957 100.336 69.059 100.183C69.9406 99.8121 69.9774 98.9478 69.9775 98.8009C69.9777 98.5743 69.925 98.4027 69.9116 98.3589C69.8749 98.2387 69.8303 98.1487 69.8213 98.1305C69.8043 98.0957 69.7891 98.0677 69.7806 98.0522C69.7634 98.0213 69.7473 97.9943 69.7435 97.988C69.7389 97.9803 69.7412 97.9841 69.7427 97.9867C69.7436 97.9882 69.7485 97.9965 69.7548 98.0077C69.758 98.0133 69.764 98.024 69.7713 98.0378C69.7765 98.0476 69.7928 98.0782 69.8112 98.1186L67.0828 99.3659C67.1015 99.4067 67.118 99.4378 67.1235 99.4483C67.1312 99.4626 67.1375 99.474 67.1412 99.4804C67.1484 99.4932 67.1544 99.5035 67.1567 99.5074C67.1596 99.5123 67.1621 99.5165 67.1633 99.5185C67.164 99.5197 67.1647 99.5208 67.1651 99.5216C67.1656 99.5225 67.166 99.523 67.1663 99.5236C67.1706 99.5307 67.1643 99.5204 67.1556 99.5047C67.1513 99.4969 67.1399 99.4762 67.126 99.4478C67.1202 99.4359 67.078 99.3514 67.0425 99.2353C67.0297 99.1935 66.9773 99.0237 66.9775 98.7983C66.9777 98.6525 67.0142 97.7891 67.895 97.4183C68.258 97.2655 68.5823 97.2938 68.7589 97.3276C68.939 97.3622 69.0732 97.4225 69.1441 97.4577C69.2844 97.5277 69.3805 97.6039 69.4122 97.6293L67.5325 99.9674ZM69.8112 98.1186C69.7782 98.0463 69.7773 98.0162 69.6813 97.7045L66.814 98.5867C66.8411 98.6749 66.9414 99.0566 67.0828 99.3659L69.8112 98.1186ZM69.6813 97.7045C69.6 97.4401 69.497 97.1027 69.3552 96.7613L66.5847 97.9121C66.6631 98.1007 66.7268 98.3032 66.814 98.5867L69.6813 97.7045ZM69.3552 96.7613C69.3107 96.654 69.1746 96.2829 68.956 95.955L66.4599 97.6191C66.455 97.6118 66.4619 97.6201 66.4833 97.6678C66.4942 97.6922 66.5067 97.7217 66.5239 97.7637C66.5371 97.7959 66.5642 97.8628 66.5847 97.9121L69.3552 96.7613ZM68.956 95.955C68.9626 95.9649 68.9655 95.9701 68.9651 95.9693C68.9647 95.9687 68.9626 95.9648 68.9589 95.9574C68.951 95.9417 68.9413 95.9201 68.931 95.8949L66.1516 97.024C66.2131 97.1753 66.315 97.4018 66.4599 97.6191L68.956 95.955ZM68.931 95.8949C68.8944 95.8046 68.8484 95.7147 68.8462 95.7104C68.8145 95.6465 68.8622 95.7338 68.8984 95.8463C68.9109 95.8852 68.9341 95.963 68.9498 96.0652C68.9628 96.1493 68.9899 96.3645 68.9267 96.6307C68.8533 96.9397 68.6397 97.3622 68.1626 97.6102C67.7461 97.8267 67.3637 97.7833 67.2023 97.7531C66.9033 97.6971 66.7039 97.5594 66.7006 97.5572C66.6727 97.5394 66.6525 97.525 66.6421 97.5173C66.631 97.5091 66.6243 97.5038 66.6228 97.5026L68.4969 95.16C68.4557 95.1271 68.3921 95.0779 68.3151 95.0287C68.285 95.0095 68.0665 94.8628 67.7544 94.8043C67.5865 94.7729 67.1991 94.73 66.7789 94.9484C66.2982 95.1983 66.0823 95.6241 66.0078 95.9378C65.9435 96.2087 65.9707 96.4298 65.9847 96.521C66.0015 96.6303 66.0268 96.7162 66.0423 96.7642C66.0728 96.8593 66.107 96.9344 66.12 96.963C66.1362 96.9983 66.1521 97.0302 66.1586 97.0434C66.1839 97.0942 66.1675 97.0631 66.1516 97.024L68.931 95.8949ZM66.6228 97.5026C66.5502 97.4445 66.5636 97.4122 66.673 97.6358C66.6975 97.686 66.7213 97.7366 66.7529 97.8034C66.7824 97.8658 66.8182 97.9412 66.857 98.0187C66.9334 98.1711 67.0404 98.3704 67.1862 98.5711L69.6139 96.8086C69.5624 96.7377 69.5476 96.6852 69.368 96.3179C69.2371 96.0502 68.9833 95.5491 68.4969 95.16L66.6228 97.5026ZM67.1862 98.5711C67.2585 98.6707 67.3227 98.7704 67.4263 98.9274C67.5197 99.069 67.6429 99.2532 67.7901 99.4382L70.1379 97.5707C70.0797 97.4975 70.0185 97.4089 69.9302 97.275C69.852 97.1565 69.7369 96.978 69.6139 96.8086L67.1862 98.5711ZM67.7901 99.4382C67.943 99.6304 68.0911 99.8436 68.2604 100.095C68.42 100.332 68.6123 100.625 68.8118 100.901L71.2438 99.1443C71.0825 98.9209 70.935 98.6959 70.7489 98.4195C70.5725 98.1575 70.3691 97.8614 70.1379 97.5707L67.7901 99.4382ZM68.8118 100.901C69.0124 101.179 69.3101 101.574 69.7302 101.91L71.6042 99.5676C71.5206 99.5006 71.4194 99.3875 71.2438 99.1443L68.8118 100.901ZM69.7302 101.91C70.0781 102.189 70.3115 102.36 70.5857 102.592L72.5203 100.299C72.2155 100.042 71.8463 99.7612 71.6042 99.5675L69.7302 101.91ZM70.5857 102.592C70.7844 102.759 70.9637 102.96 71.2392 103.266C71.4886 103.543 71.8255 103.916 72.2444 104.244L74.0914 101.88C73.906 101.735 73.7292 101.548 73.4692 101.259C73.2352 100.999 72.9092 100.627 72.5203 100.299L70.5857 102.592ZM72.2444 104.244C72.902 104.757 73.6489 105.352 74.5113 105.848L76.0057 103.246C75.3637 102.877 74.7914 102.426 74.0914 101.88L72.2444 104.244ZM74.5113 105.848C75.5924 106.469 76.7498 106.941 77.9281 107.278L78.7523 104.393C77.7858 104.117 76.8566 103.735 76.0057 103.246L74.5113 105.848ZM77.9281 107.278C78.2938 107.382 78.6484 107.506 79.0763 107.649L80.025 104.803C79.6504 104.678 79.2001 104.521 78.7523 104.393L77.9281 107.278ZM79.0763 107.649C79.1263 107.666 79.1694 107.677 79.187 107.682C79.2084 107.688 79.2293 107.693 79.2403 107.696C79.2546 107.699 79.2618 107.701 79.2693 107.703C79.2761 107.705 79.278 107.705 79.277 107.705C79.2763 107.705 79.2683 107.703 79.2554 107.698C79.2435 107.695 79.2177 107.686 79.1834 107.671C79.1528 107.659 79.0892 107.631 79.0117 107.584C78.9716 107.559 78.9173 107.524 78.8568 107.475C78.7975 107.427 78.717 107.354 78.6357 107.253L80.9783 105.379C80.8184 105.179 80.6455 105.066 80.566 105.018C80.4727 104.961 80.3901 104.924 80.338 104.902C80.235 104.86 80.1424 104.832 80.0959 104.819C80.0443 104.804 79.9943 104.792 79.9765 104.787C79.9303 104.776 79.9732 104.786 80.025 104.803L79.0763 107.649ZM78.6357 107.253C78.5904 107.196 78.4549 107.022 78.3748 106.753C78.2796 106.435 78.2475 105.887 78.6364 105.397C78.9522 104.999 79.3558 104.895 79.4813 104.867C79.6411 104.832 79.7689 104.832 79.817 104.832C79.9144 104.834 79.9963 104.846 79.971 104.843C79.9708 104.843 79.9706 104.843 79.9701 104.843C79.9697 104.843 79.969 104.843 79.9682 104.843C79.9667 104.842 79.9641 104.842 79.9611 104.842C79.9555 104.841 79.9451 104.84 79.9324 104.838C79.9146 104.836 79.8548 104.83 79.7791 104.829L79.7381 107.828C79.6335 107.827 79.5314 107.811 79.5841 107.818C79.5875 107.818 79.6099 107.821 79.6366 107.824C79.6618 107.827 79.7142 107.831 79.7797 107.832C79.8339 107.833 79.9673 107.832 80.1316 107.796C80.2616 107.767 80.6686 107.662 80.9864 107.262C81.3772 106.769 81.3457 106.217 81.2492 105.894C81.1677 105.622 81.029 105.442 80.9783 105.379L78.6357 107.253ZM79.7791 104.829C79.6589 104.827 79.546 104.812 79.2928 104.785L78.9769 107.769C79.1385 107.786 79.4407 107.824 79.7381 107.828L79.7791 104.829ZM79.2928 104.785C78.9292 104.747 78.5569 104.681 78.1392 104.601C77.7388 104.524 77.2732 104.429 76.8091 104.359L76.3567 107.324C76.7469 107.384 77.1271 107.461 77.574 107.547C78.0036 107.63 78.4801 107.716 78.9769 107.769L79.2928 104.785ZM76.8091 104.359C76.0677 104.245 75.3169 104.264 74.7686 104.264V107.264C75.432 107.264 75.8979 107.254 76.3567 107.324L76.8091 104.359ZM74.7686 104.264C74.0505 104.264 73.4497 104.244 72.6802 104.239L72.6588 107.239C73.2894 107.243 74.0857 107.264 74.7686 107.264V104.264ZM72.6802 104.239C72.3752 104.237 72.0937 104.229 71.8388 104.206L71.572 107.194C71.9501 107.228 72.3283 107.236 72.6588 107.239L72.6802 104.239ZM71.8388 104.206C71.6145 104.186 71.4036 104.188 71.2661 104.189C71.1066 104.19 71.0275 104.191 70.9555 104.186L70.7434 107.178C70.9564 107.193 71.1628 107.19 71.2888 107.189C71.4368 107.188 71.5113 107.189 71.572 107.194L71.8388 104.206ZM70.9555 104.186C69.999 104.118 68.6372 103.934 67.3439 104.095L67.716 107.072C68.6244 106.958 69.4975 107.09 70.7434 107.178L70.9555 104.186ZM67.3439 104.095C67.6082 104.062 67.8951 104.109 68.1546 104.25C68.3948 104.381 68.5374 104.553 68.6119 104.663C68.6859 104.774 68.7208 104.865 68.7349 104.906C68.7504 104.951 68.7558 104.979 68.7565 104.983C68.7573 104.987 68.7534 104.965 68.7502 104.909C68.746 104.834 68.748 104.835 68.744 104.731L65.7462 104.847C65.7464 104.853 65.7479 105.225 65.8109 105.552C65.8404 105.704 65.9127 106.025 66.1215 106.336C66.3774 106.717 66.9259 107.171 67.716 107.072L67.3439 104.095ZM68.744 104.731C68.7355 104.51 68.7066 104.295 68.6921 104.177C68.6743 104.032 68.6696 103.972 68.6696 103.932H65.6696C65.6696 104.176 65.6971 104.401 65.7143 104.542C65.7349 104.709 65.7436 104.78 65.7462 104.847L68.744 104.731ZM68.6696 103.932C68.6696 103.604 68.716 103.263 68.7826 102.799C68.8441 102.37 68.926 101.817 68.926 101.24H65.926C65.926 101.567 65.8796 101.908 65.813 102.373C65.7515 102.802 65.6696 103.355 65.6696 103.932H68.6696ZM68.926 101.24C68.926 100.777 68.9187 100.256 68.8503 99.7083L65.8735 100.08C65.9175 100.432 65.926 100.798 65.926 101.24H68.926ZM68.8503 99.7083C68.8455 99.6702 68.8419 99.623 68.836 99.5299C68.8309 99.4508 68.8233 99.3212 68.8083 99.1881L65.8272 99.524C65.8323 99.5698 65.8356 99.6201 65.842 99.7207C65.8476 99.8074 65.8559 99.9399 65.8735 100.08L68.8503 99.7083ZM68.8083 99.1881C68.7885 99.012 68.7514 98.8315 68.7385 98.7634C68.7198 98.6639 68.7205 98.651 68.721 98.6628L65.7237 98.7904C65.7331 99.0123 65.7697 99.2093 65.7905 99.3195C65.8172 99.4611 65.8234 99.4903 65.8272 99.524L68.8083 99.1881ZM68.721 98.6628C68.7095 98.3945 68.7122 98.1855 68.7341 98.0168L65.759 97.6307C65.7041 98.0534 65.7097 98.4629 65.7237 98.7904L68.721 98.6628ZM68.7341 98.0168C68.742 97.9555 68.746 97.8998 68.7475 97.88C68.75 97.846 68.75 97.844 68.7509 97.8326C68.7533 97.8048 68.7504 97.8721 68.7233 97.9708C68.7083 98.0255 68.6095 98.4022 68.2179 98.6893C67.9949 98.8528 67.7285 98.9474 67.4538 98.9613C67.1976 98.9743 66.9965 98.9146 66.8757 98.8654L68.0076 96.0871C67.6391 95.937 67.0151 95.8511 66.4439 96.27C66 96.5955 65.8676 97.0409 65.8302 97.177C65.7808 97.3572 65.7668 97.5185 65.7616 97.5799C65.7499 97.7186 65.7579 97.6389 65.759 97.6307L68.7341 98.0168ZM66.8757 98.8654C66.6735 98.783 66.558 98.6702 66.5313 98.6435C66.5149 98.6271 66.5079 98.6184 66.5165 98.6284C66.5206 98.6332 66.5258 98.6393 66.5353 98.6507C66.5433 98.6601 66.5573 98.6769 66.5712 98.6933L68.856 96.7492C68.8508 96.743 68.8455 96.7366 68.8338 96.7227C68.8238 96.7108 68.8091 96.6933 68.7929 96.6744C68.761 96.6373 68.7121 96.5816 68.6515 96.521C68.5362 96.4059 68.323 96.2156 68.0076 96.0871L66.8757 98.8654ZM66.5712 98.6933C66.6468 98.7821 66.7231 98.8787 66.8019 98.9838L69.2021 97.184C69.0955 97.0418 68.9803 96.8952 68.856 96.7492L66.5712 98.6933ZM66.8019 98.9838C66.8484 99.0458 66.8953 99.1101 66.943 99.1769L69.3842 97.4332C69.326 97.3517 69.2653 97.2683 69.2021 97.184L66.8019 98.9838ZM66.943 99.1769C67.0149 99.2775 67.0862 99.3928 67.163 99.5303L69.7817 98.0665C69.6695 97.8659 69.5393 97.6503 69.3842 97.4332L66.943 99.1769ZM67.163 99.5303C67.2511 99.6879 67.334 99.8515 67.437 100.053L70.1093 98.69C70.0157 98.5065 69.9038 98.285 69.7817 98.0665L67.163 99.5303ZM67.437 100.053C67.624 100.42 67.9052 101.047 68.2919 101.594L70.7412 99.8613C70.5198 99.5483 70.3986 99.2571 70.1093 98.69L67.437 100.053ZM68.2919 101.594C68.799 102.311 69.4467 102.907 69.9786 103.37L71.9482 101.107C71.4446 100.669 71.0286 100.268 70.7412 99.8613L68.2919 101.594ZM69.9786 103.37C70.6311 103.938 71.3839 104.534 72.2318 105.009L73.6967 102.391C73.1093 102.062 72.5348 101.618 71.9482 101.107L69.9786 103.37ZM72.2324 105.009L72.2525 105.02L73.7163 102.401L73.6961 102.39L72.2324 105.009ZM72.252 105.02C72.9562 105.414 73.5977 105.774 74.1865 106.179L75.8861 103.707C75.164 103.21 74.4001 102.784 73.7168 102.402L72.252 105.02ZM74.1865 106.179C74.3432 106.287 74.3982 106.32 74.4826 106.382L76.2622 103.967C76.1275 103.868 75.9537 103.753 75.8861 103.707L74.1865 106.179ZM74.4826 106.382C74.5917 106.463 74.544 106.426 74.5212 106.405C74.5085 106.394 74.4489 106.34 74.3811 106.254C74.3472 106.21 74.2834 106.124 74.2236 106.002C74.1712 105.894 74.0634 105.643 74.0749 105.303C74.0887 104.893 74.2739 104.486 74.6174 104.204C74.9037 103.968 75.1959 103.905 75.3261 103.885C75.5787 103.845 75.7702 103.887 75.7806 103.889L75.2262 106.837C75.2871 106.848 75.5136 106.892 75.7888 106.849C75.9304 106.827 76.2307 106.761 76.5224 106.521C76.8713 106.234 77.0591 105.821 77.0732 105.404C77.0849 105.058 76.9749 104.799 76.9183 104.683C76.8542 104.552 76.7843 104.456 76.7424 104.403C76.6587 104.296 76.5766 104.22 76.5374 104.184C76.4091 104.068 76.195 103.918 76.2622 103.967L74.4826 106.382ZM75.7806 103.889C75.5815 103.851 75.5618 103.823 75.1323 103.71L74.3678 106.611C74.4363 106.629 74.9189 106.779 75.2262 106.837L75.7806 103.889ZM75.1323 103.71C74.6772 103.59 74.3535 103.517 73.9938 103.408L73.1224 106.278C73.5502 106.408 74.0274 106.521 74.3678 106.611L75.1323 103.71ZM73.9938 103.408C73.0759 103.129 72.119 102.957 71.1058 102.957V105.957C71.7729 105.957 72.4338 106.069 73.1224 106.278L73.9938 103.408ZM71.1058 102.957C70.8782 102.957 70.6493 102.954 70.4073 102.952L70.3735 105.951C70.6091 105.954 70.8575 105.957 71.1058 105.957V102.957ZM70.4073 102.952C69.9783 102.947 69.5112 102.942 69.0395 102.96L69.1505 105.958C69.5398 105.943 69.9382 105.947 70.3735 105.951L70.4073 102.952ZM69.0395 102.96C68.8078 102.968 68.5809 102.989 68.4046 103.004C68.2144 103.02 68.07 103.031 67.9343 103.034L68.0057 106.034C68.2455 106.028 68.4756 106.009 68.66 105.993C68.8584 105.976 69.0063 105.963 69.1505 105.958L69.0395 102.96ZM67.9343 103.034C67.8964 103.035 67.8326 103.037 67.7619 103.045C67.7293 103.048 67.66 103.056 67.5757 103.074C67.5336 103.084 67.461 103.101 67.3743 103.134C67.3053 103.159 67.1273 103.229 66.9408 103.382C66.7501 103.538 66.385 103.929 66.391 104.558C66.3965 105.141 66.7234 105.503 66.8536 105.628C67.0982 105.862 67.3649 105.951 67.374 105.954C67.4982 106 67.6081 106.022 67.6293 106.026C67.7604 106.053 67.9477 106.077 68.0723 106.092C68.4109 106.135 68.7271 106.17 68.8753 106.195L69.3802 103.238C69.1433 103.197 68.6853 103.146 68.4437 103.116C68.2781 103.095 68.2238 103.086 68.2346 103.088C68.2421 103.09 68.26 103.093 68.2843 103.1C68.3033 103.104 68.3562 103.118 68.4235 103.143C68.4258 103.144 68.6878 103.23 68.93 103.462C69.059 103.586 69.3853 103.946 69.3908 104.529C69.3968 105.157 69.0322 105.547 68.8427 105.702C68.6575 105.854 68.4813 105.923 68.4148 105.947C68.3305 105.978 68.261 105.995 68.2226 106.004C68.1458 106.021 68.0866 106.027 68.0669 106.029C68.0218 106.034 67.9947 106.034 68.0057 106.034L67.9343 103.034ZM68.8753 106.195C69.6302 106.324 70.4761 106.391 71.0918 106.465L71.4503 103.486C70.6343 103.388 70.0486 103.352 69.3802 103.238L68.8753 106.195ZM71.0918 106.465C71.4976 106.514 71.9897 106.572 72.5086 106.572V103.572C72.1942 103.572 71.8709 103.537 71.4503 103.486L71.0918 106.465ZM72.5086 106.572C72.5618 106.572 72.6457 106.57 72.7439 106.558C72.8109 106.549 73.035 106.519 73.2821 106.386C73.5603 106.237 74.1347 105.778 74.0756 104.948C74.0336 104.359 73.6699 104.018 73.6121 103.962C73.4218 103.779 73.2178 103.683 73.1917 103.67C73.1184 103.633 73.0493 103.604 73.0007 103.585C72.8184 103.512 72.6083 103.446 72.5628 103.433L71.7223 106.313C71.7156 106.311 71.8248 106.345 71.884 106.369C71.8958 106.374 71.8823 106.369 71.854 106.355C71.8397 106.348 71.8069 106.331 71.7643 106.305C71.7322 106.285 71.6372 106.225 71.5316 106.123C71.4831 106.077 71.1247 105.744 71.0832 105.162C71.0245 104.339 71.5948 103.887 71.8633 103.743C72.1009 103.615 72.3099 103.589 72.3558 103.583C72.4328 103.573 72.4894 103.572 72.5086 103.572V106.572ZM72.5628 103.433C71.9328 103.249 71.2897 103.106 70.6953 102.983L70.0855 105.92C70.6582 106.039 71.2085 106.163 71.7223 106.313L72.5628 103.433ZM70.6953 102.983C70.6888 102.981 70.6812 102.98 70.6739 102.978L70.0652 105.916C70.0718 105.917 70.0781 105.919 70.0855 105.92L70.6953 102.983ZM70.6739 102.978C70.061 102.851 69.4034 102.804 68.9644 102.756L68.6331 105.737C69.2493 105.806 69.6358 105.827 70.0652 105.916L70.6739 102.978ZM68.9644 102.756C68.7686 102.734 68.5281 102.721 68.4158 102.714C68.2638 102.703 68.1909 102.693 68.1515 102.684L67.5007 105.612C67.768 105.672 68.0251 105.693 68.2045 105.706C68.4237 105.722 68.5161 105.724 68.6331 105.737L68.9644 102.756ZM68.1515 102.684C68.726 102.812 69.0041 103.216 69.0952 103.376C69.1931 103.548 69.2258 103.692 69.2347 103.732C69.2549 103.825 69.252 103.873 69.2511 103.83C69.2505 103.805 69.2511 103.769 69.2529 103.722C69.2538 103.7 69.2547 103.68 69.2558 103.657C69.2562 103.649 69.2588 103.598 69.2591 103.553L66.2593 103.527C66.2593 103.519 66.26 103.482 66.2552 103.605C66.2524 103.676 66.2492 103.783 66.2518 103.897C66.254 103.994 66.2612 104.178 66.3043 104.375C66.3246 104.467 66.372 104.656 66.4885 104.861C66.5982 105.053 66.8989 105.479 67.5007 105.612L68.1515 102.684ZM69.2591 103.553C69.2599 103.464 69.2673 103.369 69.2808 103.204C69.2928 103.058 69.3105 102.846 69.3105 102.622H66.3105C66.3105 102.706 66.3038 102.8 66.2908 102.959C66.2793 103.099 66.2611 103.309 66.2593 103.527L69.2591 103.553ZM69.3105 102.622C69.3105 102.314 69.2914 102.007 69.2533 101.702L66.2765 102.074C66.2991 102.255 66.3105 102.438 66.3105 102.622H69.3105ZM69.2533 101.702C69.2072 101.333 69.2093 100.964 69.2617 100.67L66.308 100.144C66.1908 100.804 66.2028 101.484 66.2765 102.074L69.2533 101.702ZM69.2617 100.67C69.3209 100.336 69.3361 100.016 69.3361 99.7434H66.3361C66.3361 99.9116 66.326 100.043 66.308 100.144L69.2617 100.67ZM69.3361 99.7434C69.3361 99.6092 69.3221 99.4955 69.3089 99.4135C69.2964 99.3365 69.2809 99.2674 69.2758 99.244C69.2678 99.2073 69.2704 99.2177 69.2732 99.2348C69.2769 99.2571 69.2848 99.3122 69.2848 99.3874H66.2848C66.2848 99.5228 66.2992 99.6372 66.3125 99.7184C66.3249 99.7943 66.3403 99.8632 66.3451 99.8851C66.3528 99.9202 66.3502 99.9099 66.3473 99.8924C66.3437 99.8698 66.3361 99.8162 66.3361 99.7434H69.3361ZM69.2848 99.3874C69.2848 99.4381 69.2876 99.696 69.1577 99.9907C69.0845 100.157 68.9316 100.42 68.629 100.626C68.299 100.85 67.9307 100.911 67.6159 100.876C67.1164 100.819 66.815 100.53 66.7784 100.496C66.6843 100.411 66.6226 100.332 66.5977 100.3C66.5432 100.229 66.5082 100.169 66.4991 100.154C66.4848 100.129 66.4748 100.111 66.4702 100.102C66.4563 100.075 66.4514 100.063 66.4609 100.084C66.4666 100.097 66.4735 100.112 66.4801 100.128C66.4832 100.135 66.4859 100.141 66.4881 100.146C66.4889 100.148 66.4904 100.151 66.4914 100.154C66.4919 100.155 66.493 100.157 66.4942 100.16C66.4947 100.161 66.4959 100.164 66.4974 100.167C66.4976 100.168 66.5026 100.179 66.5091 100.193L69.2286 98.9264C69.238 98.9466 69.2525 98.9799 69.2296 98.9274C69.2202 98.9059 69.2062 98.8742 69.1912 98.8412C69.18 98.8165 69.1545 98.7607 69.1251 98.7049C69.1251 98.7049 69.0688 98.5924 68.9791 98.4753C68.953 98.4414 68.8903 98.3618 68.7953 98.2755C68.7579 98.2415 68.4557 97.9519 67.9556 97.8949C67.6405 97.859 67.2719 97.9204 66.9417 98.1451C66.6389 98.3511 66.4858 98.6144 66.4125 98.7807C66.2823 99.0762 66.2848 99.3352 66.2848 99.3874H69.2848ZM66.5091 100.193C66.6097 100.409 66.7174 100.609 66.812 100.78L69.4378 99.3291C69.3527 99.1751 69.2849 99.0472 69.2286 98.9264L66.5091 100.193ZM66.812 100.78C66.8941 100.929 66.9475 101.022 67.0167 101.149L69.6495 99.7107C69.5817 99.5865 69.4942 99.4311 69.4378 99.3291L66.812 100.78ZM67.0167 101.149C67.2121 101.506 67.5372 102.149 67.7882 102.593L70.399 101.115C70.1202 100.623 69.9699 100.297 69.6495 99.7107L67.0167 101.149ZM67.7882 102.593C68.2879 103.476 69.0154 104.066 69.8205 104.458L71.1351 101.762C70.7683 101.583 70.5461 101.375 70.399 101.115L67.7882 102.593ZM69.8205 104.458C70.2905 104.687 70.7908 104.846 71.1495 104.961L72.0684 102.105C71.6706 101.977 71.3794 101.881 71.1351 101.762L69.8205 104.458ZM71.1499 104.961L71.1538 104.962L72.0718 102.106L72.068 102.105L71.1499 104.961ZM71.1534 104.962C71.2169 104.983 71.2908 105.005 71.3355 105.019C71.3883 105.036 71.4268 105.048 71.4597 105.06C71.5288 105.084 71.5358 105.091 71.516 105.08L73.0454 102.499C72.6545 102.267 72.1711 102.138 72.0722 102.106L71.1534 104.962ZM71.516 105.08C71.5014 105.071 71.449 105.04 71.3831 104.988C71.359 104.969 71.1387 104.803 70.9848 104.496C70.8954 104.317 70.7805 103.993 70.8473 103.587C70.9185 103.153 71.1594 102.847 71.3836 102.666C71.7337 102.384 72.1032 102.352 72.1289 102.349C72.2309 102.336 72.3089 102.338 72.3329 102.339C72.3653 102.34 72.3882 102.342 72.394 102.342C72.4011 102.343 72.4041 102.343 72.3972 102.343C72.3972 102.343 72.3749 102.34 72.3622 102.339L72.0482 105.322C72.029 105.32 72.0977 105.328 72.1321 105.331C72.1438 105.332 72.3072 105.35 72.4951 105.326C72.5328 105.322 72.9113 105.288 73.2665 105.001C73.4934 104.818 73.7358 104.51 73.8076 104.073C73.8748 103.664 73.7592 103.336 73.668 103.154C73.5103 102.839 73.2812 102.664 73.2422 102.633C73.1615 102.569 73.0881 102.524 73.0454 102.499L71.516 105.08ZM72.3622 102.339C71.9208 102.292 71.6969 102.283 71.4377 102.231L70.8537 105.174C71.2916 105.261 71.7835 105.294 72.0482 105.322L72.3622 102.339ZM71.4377 102.231C70.8953 102.123 70.2626 101.99 69.6239 101.907L69.2383 104.882C69.751 104.949 70.2581 105.056 70.8537 105.174L71.4377 102.231ZM69.6239 101.907C69.3911 101.877 69.1743 101.876 69.0458 101.875C68.89 101.874 68.8335 101.873 68.7839 101.868L68.489 104.853C68.7037 104.875 68.913 104.874 69.0227 104.875C69.1598 104.876 69.2082 104.878 69.2383 104.882L69.6239 101.907ZM68.7838 101.868C68.704 101.86 68.6384 101.86 68.6339 101.86C68.6138 101.86 68.597 101.861 68.589 101.861C68.5745 101.861 68.5542 101.862 68.5503 101.862C68.5303 101.862 68.5274 101.862 68.5311 101.862C68.5338 101.862 68.5455 101.863 68.5636 101.864C68.5789 101.865 68.6181 101.867 68.671 101.875C68.7074 101.881 68.8371 101.902 68.995 101.968C69.0762 102.002 69.22 102.071 69.3719 102.199C69.5282 102.331 69.7404 102.567 69.8438 102.929L66.9592 103.753C67.0637 104.119 67.2787 104.358 67.439 104.494C67.5949 104.625 67.7442 104.697 67.8319 104.734C68.003 104.806 68.1504 104.831 68.2077 104.839C68.339 104.86 68.4542 104.862 68.4988 104.862C68.5577 104.863 68.6104 104.861 68.6349 104.861C68.6383 104.861 68.6414 104.861 68.644 104.86C68.6467 104.86 68.6487 104.86 68.6505 104.86C68.6546 104.86 68.6546 104.86 68.6529 104.86C68.6525 104.86 68.6422 104.86 68.6273 104.86C68.6197 104.86 68.6055 104.86 68.5874 104.86C68.5729 104.859 68.5361 104.858 68.489 104.853L68.7838 101.868ZM69.8438 102.929C69.8585 102.98 69.8661 103.022 69.8701 103.049C69.8742 103.077 69.8757 103.097 69.8762 103.106C69.8771 103.123 69.876 103.123 69.8774 103.096C69.8788 103.07 69.8814 103.037 69.8862 102.985C69.888 102.964 69.8914 102.928 69.8938 102.902C69.8964 102.872 69.8996 102.835 69.9022 102.797L66.9093 102.591C66.9076 102.615 66.905 102.641 66.8986 102.711C66.8933 102.77 66.886 102.853 66.8814 102.942C66.874 103.085 66.8612 103.41 66.9592 103.753L69.8438 102.929ZM69.9022 102.797C69.9132 102.637 69.9376 102.359 69.9483 102.129L66.9515 101.989C66.9426 102.182 66.9274 102.328 66.9093 102.591L69.9022 102.797ZM69.9483 102.129C69.9539 102.008 69.9456 101.872 69.9454 101.868C69.9425 101.805 69.9472 101.854 69.9414 101.927C69.939 101.958 69.9283 102.099 69.8642 102.275C69.8162 102.408 69.5964 102.951 68.9407 103.166C68.2756 103.385 67.7722 103.068 67.65 102.983C67.4922 102.874 67.4036 102.763 67.3881 102.744L69.7166 100.852C69.6629 100.786 69.5425 100.645 69.3585 100.517C69.2102 100.414 68.686 100.092 68.0047 100.316C67.3327 100.537 67.101 101.096 67.0445 101.251C66.9719 101.451 66.956 101.624 66.9508 101.69C66.9392 101.836 66.9473 101.977 66.9485 102.004C66.9524 102.091 66.949 102.044 66.9515 101.989L69.9483 102.129ZM67.3881 102.744C67.375 102.728 67.3661 102.716 67.3615 102.709L69.7975 100.959C69.7735 100.925 69.7465 100.889 69.7166 100.852L67.3881 102.744ZM67.3615 102.709C67.3514 102.695 67.3694 102.713 67.4107 102.841C67.4325 102.909 67.4518 102.978 67.4834 103.088C67.5119 103.187 67.5501 103.319 67.5978 103.457L70.4327 102.475C70.4137 102.421 70.3946 102.357 70.3671 102.261C70.3427 102.176 70.3072 102.049 70.2673 101.925C70.1851 101.669 70.0519 101.312 69.7975 100.959L67.3615 102.709ZM67.5978 103.457C67.6087 103.488 67.6247 103.532 67.6372 103.574C67.6496 103.615 67.6298 103.559 67.6157 103.465C67.6113 103.436 67.6019 103.368 67.6006 103.279C67.6 103.232 67.5934 102.98 67.7157 102.689C67.7844 102.525 67.9305 102.26 68.2273 102.049C68.5525 101.817 68.9211 101.747 69.24 101.778C69.7442 101.828 70.0499 102.116 70.083 102.146L68.0899 104.388C68.1298 104.423 68.441 104.715 68.9493 104.764C69.2704 104.796 69.6408 104.725 69.9675 104.493C70.2658 104.28 70.4131 104.014 70.4827 103.848C70.6069 103.551 70.6011 103.293 70.6004 103.237C70.599 103.139 70.5886 103.061 70.5823 103.019C70.5607 102.876 70.5207 102.745 70.5092 102.707C70.4739 102.59 70.427 102.459 70.4327 102.475L67.5978 103.457ZM70.083 102.146C70.1721 102.225 70.2347 102.302 70.2765 102.362C70.3183 102.422 70.3459 102.474 70.3627 102.508C70.3798 102.543 70.3902 102.57 70.3955 102.584C70.3983 102.592 70.4002 102.598 70.4014 102.601C70.402 102.603 70.4024 102.605 70.4027 102.605C70.4029 102.606 70.4031 102.607 70.4031 102.607C70.4031 102.607 70.403 102.606 70.4028 102.606C70.4025 102.605 70.4022 102.604 70.4018 102.602C70.4009 102.599 70.3997 102.594 70.3982 102.588C70.3947 102.575 70.3912 102.56 70.3852 102.536C70.3801 102.515 70.372 102.481 70.3631 102.447C70.3543 102.413 70.3409 102.364 70.3229 102.308L67.4684 103.231C67.4587 103.201 67.4554 103.184 67.47 103.244C67.4791 103.281 67.4992 103.366 67.525 103.453C67.5507 103.541 67.5942 103.675 67.6653 103.821C67.7331 103.96 67.8611 104.184 68.0899 104.388L70.083 102.146ZM70.3229 102.308C70.2093 101.957 70.0632 101.571 69.9661 101.297L67.1385 102.299C67.2709 102.673 67.3706 102.929 67.4684 103.231L70.3229 102.308ZM69.9661 101.297C69.9224 101.174 69.8827 101.058 69.8471 100.945L66.9872 101.851C67.0366 102.007 67.0882 102.157 67.1385 102.299L69.9661 101.297ZM69.8471 100.945C69.7421 100.614 69.671 100.253 69.6085 99.8335L66.6413 100.276C66.7139 100.763 66.813 101.301 66.9872 101.851L69.8471 100.945ZM69.6085 99.8335C69.5433 99.3958 69.5206 99.1567 69.4492 98.6569L66.4793 99.0812C66.5208 99.3716 66.5891 99.9255 66.6413 100.276L69.6085 99.8335Z" fill="black"/>
<path d="M211.75 145.5C211.75 146.7 211.3 147.75 210.4 148.65C209.5 149.55 208.45 150 207.25 150C205.95 150 204.85 149.55 203.95 148.65C203.15 147.75 202.75 146.7 202.75 145.5V43.5C202.75 42.3 203.2 41.25 204.1 40.35C205 39.45 206.05 39 207.25 39C208.55 39 209.6 39.45 210.4 40.35C211.3 41.25 211.75 42.3 211.75 43.5V145.5ZM269.605 151.5C261.905 151.5 255.105 149.85 249.205 146.55C243.305 143.25 238.705 138.65 235.405 132.75C232.105 126.85 230.455 119.95 230.455 112.05C230.455 103.55 232.105 96.3 235.405 90.3C238.805 84.3 243.155 79.7 248.455 76.5C253.855 73.2 259.555 71.55 265.555 71.55C269.955 71.55 274.205 72.35 278.305 73.95C282.505 75.45 286.205 77.75 289.405 80.85C292.705 83.85 295.305 87.55 297.205 91.95C299.205 96.35 300.305 101.45 300.505 107.25C300.405 108.45 299.905 109.5 299.005 110.4C298.105 111.2 297.055 111.6 295.855 111.6H235.705L233.905 103.5H293.005L291.055 105.3V102.3C290.655 97.6 289.155 93.6 286.555 90.3C283.955 87 280.805 84.5 277.105 82.8C273.405 81.1 269.555 80.25 265.555 80.25C262.555 80.25 259.455 80.85 256.255 82.05C253.155 83.25 250.305 85.15 247.705 87.75C245.205 90.25 243.155 93.5 241.555 97.5C239.955 101.4 239.155 106.05 239.155 111.45C239.155 117.35 240.355 122.7 242.755 127.5C245.155 132.3 248.605 136.1 253.105 138.9C257.705 141.7 263.155 143.1 269.455 143.1C272.955 143.1 276.105 142.6 278.905 141.6C281.705 140.6 284.155 139.3 286.255 137.7C288.355 136 290.105 134.25 291.505 132.45C292.605 131.55 293.705 131.1 294.805 131.1C295.805 131.1 296.655 131.5 297.355 132.3C298.155 133.1 298.555 134 298.555 135C298.555 136.2 298.055 137.25 297.055 138.15C294.055 141.75 290.155 144.9 285.355 147.6C280.555 150.2 275.305 151.5 269.605 151.5ZM354.42 151.5C346.72 151.5 339.92 149.85 334.02 146.55C328.12 143.25 323.52 138.65 320.22 132.75C316.92 126.85 315.27 119.95 315.27 112.05C315.27 103.55 316.92 96.3 320.22 90.3C323.62 84.3 327.97 79.7 333.27 76.5C338.67 73.2 344.37 71.55 350.37 71.55C354.77 71.55 359.02 72.35 363.12 73.95C367.32 75.45 371.02 77.75 374.22 80.85C377.52 83.85 380.12 87.55 382.02 91.95C384.02 96.35 385.12 101.45 385.32 107.25C385.22 108.45 384.72 109.5 383.82 110.4C382.92 111.2 381.87 111.6 380.67 111.6H320.52L318.72 103.5H377.82L375.87 105.3V102.3C375.47 97.6 373.97 93.6 371.37 90.3C368.77 87 365.62 84.5 361.92 82.8C358.22 81.1 354.37 80.25 350.37 80.25C347.37 80.25 344.27 80.85 341.07 82.05C337.97 83.25 335.12 85.15 332.52 87.75C330.02 90.25 327.97 93.5 326.37 97.5C324.77 101.4 323.97 106.05 323.97 111.45C323.97 117.35 325.17 122.7 327.57 127.5C329.97 132.3 333.42 136.1 337.92 138.9C342.52 141.7 347.97 143.1 354.27 143.1C357.77 143.1 360.92 142.6 363.72 141.6C366.52 140.6 368.97 139.3 371.07 137.7C373.17 136 374.92 134.25 376.32 132.45C377.42 131.55 378.52 131.1 379.62 131.1C380.62 131.1 381.47 131.5 382.17 132.3C382.97 133.1 383.37 134 383.37 135C383.37 136.2 382.87 137.25 381.87 138.15C378.87 141.75 374.97 144.9 370.17 147.6C365.37 150.2 360.12 151.5 354.42 151.5ZM399.634 73.65H434.584C435.784 73.65 436.784 74.1 437.584 75C438.384 75.8 438.784 76.8 438.784 78C438.784 79.1 438.384 80.05 437.584 80.85C436.784 81.65 435.784 82.05 434.584 82.05H399.634C398.434 82.05 397.384 81.65 396.484 80.85C395.684 79.95 395.284 78.95 395.284 77.85C395.284 76.65 395.684 75.65 396.484 74.85C397.384 74.05 398.434 73.65 399.634 73.65ZM415.084 52.5C416.384 52.5 417.434 52.95 418.234 53.85C419.134 54.75 419.584 55.8 419.584 57V132.3C419.584 135.1 419.934 137.2 420.634 138.6C421.434 140 422.434 140.95 423.634 141.45C424.834 141.85 426.034 142.05 427.234 142.05C428.034 142.05 428.734 141.95 429.334 141.75C430.034 141.45 430.784 141.3 431.584 141.3C432.484 141.3 433.234 141.65 433.834 142.35C434.534 143.05 434.884 143.95 434.884 145.05C434.884 146.45 434.084 147.65 432.484 148.65C430.884 149.55 428.984 150 426.784 150C425.884 150 424.534 149.95 422.734 149.85C420.934 149.65 419.084 149.1 417.184 148.2C415.284 147.2 413.684 145.5 412.384 143.1C411.184 140.7 410.584 137.25 410.584 132.75V57C410.584 55.8 410.984 54.75 411.784 53.85C412.684 52.95 413.784 52.5 415.084 52.5ZM486.632 71.55C491.132 71.55 495.282 72.35 499.082 73.95C502.882 75.45 506.182 77.45 508.982 79.95C511.882 82.35 514.132 84.95 515.732 87.75C517.332 90.45 518.132 93.05 518.132 95.55L515.582 91.95V78C515.582 76.7 515.982 75.6 516.782 74.7C517.682 73.8 518.782 73.35 520.082 73.35C521.482 73.35 522.582 73.8 523.382 74.7C524.182 75.6 524.582 76.7 524.582 78V142.95C524.582 150.95 522.932 157.7 519.632 163.2C516.332 168.7 511.832 172.85 506.132 175.65C500.532 178.55 494.132 180 486.932 180C483.432 180 479.732 179.55 475.832 178.65C472.032 177.75 468.732 176.6 465.932 175.2C463.232 173.8 461.732 172.35 461.432 170.85C460.632 169.95 460.232 169.05 460.232 168.15C460.332 167.35 460.782 166.65 461.582 166.05C462.582 165.35 463.632 165.25 464.732 165.75C465.832 166.35 467.482 167.1 469.682 168C470.682 168.3 472.032 168.75 473.732 169.35C475.432 169.95 477.432 170.45 479.732 170.85C482.132 171.35 484.632 171.6 487.232 171.6C496.232 171.6 503.182 169 508.082 163.8C513.082 158.7 515.582 151.95 515.582 143.55V129.15L517.232 129.6C516.332 133.2 514.832 136.35 512.732 139.05C510.732 141.75 508.332 144.05 505.532 145.95C502.732 147.75 499.682 149.1 496.382 150C493.182 151 489.982 151.5 486.782 151.5C479.882 151.5 473.682 149.75 468.182 146.25C462.682 142.75 458.282 138 454.982 132C451.782 126 450.182 119.15 450.182 111.45C450.182 103.85 451.782 97.05 454.982 91.05C458.282 84.95 462.632 80.2 468.032 76.8C473.532 73.3 479.732 71.55 486.632 71.55ZM487.682 79.95C482.182 79.95 477.232 81.35 472.832 84.15C468.532 86.85 465.132 90.6 462.632 95.4C460.232 100.1 459.032 105.45 459.032 111.45C459.032 117.45 460.232 122.85 462.632 127.65C465.132 132.45 468.532 136.25 472.832 139.05C477.232 141.75 482.182 143.1 487.682 143.1C493.182 143.1 498.082 141.75 502.382 139.05C506.682 136.35 510.082 132.65 512.582 127.95C515.082 123.15 516.332 117.65 516.332 111.45C516.332 105.25 515.082 99.8 512.582 95.1C510.082 90.3 506.682 86.6 502.382 84C498.082 81.3 493.182 79.95 487.682 79.95ZM604.414 73.8C605.714 73.8 606.764 74.25 607.564 75.15C608.464 76.05 608.914 77.1 608.914 78.3V120.6C608.914 130.5 606.114 138.05 600.514 143.25C594.914 148.45 587.364 151.05 577.864 151.05C568.464 151.05 560.964 148.45 555.364 143.25C549.864 138.05 547.114 130.5 547.114 120.6V78.3C547.114 77.1 547.514 76.05 548.314 75.15C549.214 74.25 550.314 73.8 551.614 73.8C552.914 73.8 553.964 74.25 554.764 75.15C555.664 76.05 556.114 77.1 556.114 78.3V120.6C556.114 127.8 558.014 133.3 561.814 137.1C565.714 140.8 571.064 142.65 577.864 142.65C584.764 142.65 590.164 140.8 594.064 137.1C597.964 133.3 599.914 127.8 599.914 120.6V78.3C599.914 77.1 600.314 76.05 601.114 75.15C601.914 74.25 603.014 73.8 604.414 73.8ZM641.214 145.5C641.214 146.7 640.764 147.75 639.864 148.65C638.964 149.55 637.914 150 636.714 150C635.414 150 634.314 149.55 633.414 148.65C632.614 147.75 632.214 146.7 632.214 145.5V76.5C632.214 75.3 632.614 74.25 633.414 73.35C634.314 72.45 635.414 72 636.714 72C638.014 72 639.064 72.45 639.864 73.35C640.764 74.25 641.214 75.3 641.214 76.5V145.5ZM636.714 61.95C634.614 61.95 633.014 61.5 631.914 60.6C630.914 59.6 630.414 58.2 630.414 56.4V54.9C630.414 53.1 630.964 51.75 632.064 50.85C633.264 49.85 634.864 49.35 636.864 49.35C638.764 49.35 640.214 49.85 641.214 50.85C642.314 51.75 642.864 53.1 642.864 54.9V56.4C642.864 58.2 642.314 59.6 641.214 60.6C640.214 61.5 638.714 61.95 636.714 61.95ZM727.444 39C728.744 39 729.794 39.45 730.594 40.35C731.494 41.15 731.944 42.2 731.944 43.5V145.5C731.944 146.7 731.494 147.75 730.594 148.65C729.694 149.55 728.644 150 727.444 150C726.144 150 725.044 149.55 724.144 148.65C723.344 147.75 722.944 146.7 722.944 145.5V127.65L725.494 125.55C725.494 128.35 724.744 131.3 723.244 134.4C721.744 137.4 719.594 140.2 716.794 142.8C714.094 145.4 710.894 147.5 707.194 149.1C703.594 150.7 699.694 151.5 695.494 151.5C688.794 151.5 682.744 149.75 677.344 146.25C672.044 142.75 667.844 138 664.744 132C661.644 126 660.094 119.15 660.094 111.45C660.094 103.85 661.644 97.05 664.744 91.05C667.844 84.95 672.044 80.2 677.344 76.8C682.644 73.3 688.644 71.55 695.344 71.55C699.444 71.55 703.344 72.3 707.044 73.8C710.744 75.3 713.994 77.35 716.794 79.95C719.694 82.55 721.944 85.55 723.544 88.95C725.244 92.25 726.094 95.7 726.094 99.3L722.944 97.05V43.5C722.944 42.3 723.344 41.25 724.144 40.35C725.044 39.45 726.144 39 727.444 39ZM696.244 143.1C701.644 143.1 706.344 141.75 710.344 139.05C714.444 136.25 717.644 132.5 719.944 127.8C722.344 123 723.544 117.55 723.544 111.45C723.544 105.45 722.344 100.1 719.944 95.4C717.644 90.6 714.444 86.85 710.344 84.15C706.244 81.35 701.544 79.95 696.244 79.95C691.044 79.95 686.344 81.35 682.144 84.15C678.044 86.85 674.794 90.6 672.394 95.4C670.094 100.1 668.944 105.45 668.944 111.45C668.944 117.45 670.094 122.85 672.394 127.65C674.794 132.45 678.044 136.25 682.144 139.05C686.344 141.75 691.044 143.1 696.244 143.1ZM790.211 151.5C782.511 151.5 775.711 149.85 769.811 146.55C763.911 143.25 759.311 138.65 756.011 132.75C752.711 126.85 751.061 119.95 751.061 112.05C751.061 103.55 752.711 96.3 756.011 90.3C759.411 84.3 763.761 79.7 769.061 76.5C774.461 73.2 780.161 71.55 786.161 71.55C790.561 71.55 794.811 72.35 798.911 73.95C803.111 75.45 806.811 77.75 810.011 80.85C813.311 83.85 815.911 87.55 817.811 91.95C819.811 96.35 820.911 101.45 821.111 107.25C821.011 108.45 820.511 109.5 819.611 110.4C818.711 111.2 817.661 111.6 816.461 111.6H756.311L754.511 103.5H813.611L811.661 105.3V102.3C811.261 97.6 809.761 93.6 807.161 90.3C804.561 87 801.411 84.5 797.711 82.8C794.011 81.1 790.161 80.25 786.161 80.25C783.161 80.25 780.061 80.85 776.861 82.05C773.761 83.25 770.911 85.15 768.311 87.75C765.811 90.25 763.761 93.5 762.161 97.5C760.561 101.4 759.761 106.05 759.761 111.45C759.761 117.35 760.961 122.7 763.361 127.5C765.761 132.3 769.211 136.1 773.711 138.9C778.311 141.7 783.761 143.1 790.061 143.1C793.561 143.1 796.711 142.6 799.511 141.6C802.311 140.6 804.761 139.3 806.861 137.7C808.961 136 810.711 134.25 812.111 132.45C813.211 131.55 814.311 131.1 815.411 131.1C816.411 131.1 817.261 131.5 817.961 132.3C818.761 133.1 819.161 134 819.161 135C819.161 136.2 818.661 137.25 817.661 138.15C814.661 141.75 810.761 144.9 805.961 147.6C801.161 150.2 795.911 151.5 790.211 151.5Z" fill="black"/>
</svg>
