<svg width="400" height="400" viewBox="0 0 400 400" fill="none" xmlns="http://www.w3.org/2000/svg">
<path d="M0 20C0 8.95431 8.95431 0 20 0H81C92.0457 0 101 8.95431 101 20V81C101 92.0457 92.0457 101 81 101H20C8.95431 101 0 92.0457 0 81V20Z" fill="#6494E1"/>
<path d="M149 20C149 8.9543 157.954 0 169 0H230C241.046 0 250 8.95431 250 20V230C250 241.046 241.046 250 230 250H169C157.954 250 149 241.046 149 230V20Z" fill="#6494E1"/>
<path d="M299 20C299 8.9543 307.954 0 319 0H380C391.046 0 400 8.9543 400 20V230C400 241.046 391.046 250 380 250H319C307.954 250 299 241.046 299 230V20Z" fill="#6494E1"/>
<path d="M0 169C0 157.954 8.9543 149 20 149H230C241.046 149 250 157.954 250 169V230C250 241.046 241.046 250 230 250H20C8.9543 250 0 241.046 0 230V169Z" fill="#6494E1"/>
<path d="M0 319C0 307.954 8.95431 299 20 299H230C241.046 299 250 307.954 250 319V380C250 391.046 241.046 400 230 400H20C8.9543 400 0 391.046 0 380V319Z" fill="#6494E1"/>
<path d="M299 319C299 307.954 307.954 299 319 299H380C391.046 299 400 307.954 400 319V380C400 391.046 391.046 400 380 400H319C307.954 400 299 391.046 299 380V319Z" fill="#6494E1"/>
</svg>
